<?xml version="1.0" standalone="no"?>
<!DOCTYPE svg PUBLIC "-//W3C//DTD SVG 1.1//EN" "http://www.w3.org/Graphics/SVG/1.1/DTD/svg11.dtd" >
<svg xmlns="http://www.w3.org/2000/svg" xmlns:xlink="http://www.w3.org/1999/xlink" version="1.1">
<metadata>
Created by FontForge 20170731 at Fri Jan  1 02:30:17 1904
 By Aleksey,,,
Copyright 1986 by Bitstream Inc., Cambridge, MA 
</metadata>
<defs>
<font id="Charter" horiz-adv-x="7726" >
  <font-face 
    font-family="Charter"
    font-weight="400"
    font-stretch="normal"
    units-per-em="1000"
    panose-1="0 0 0 0 0 0 0 0 0 0"
    ascent="800"
    descent="-200"
    x-height="481"
    cap-height="671"
    bbox="-77 -221 1194 963"
    underline-thickness="50"
    underline-position="-155"
    unicode-range="U+0020-F002"
  />
<missing-glyph 
 />
    <glyph glyph-name=".notdef" 
 />
    <glyph glyph-name="glyph1" horiz-adv-x="0" 
 />
    <glyph glyph-name="glyph2" horiz-adv-x="278" 
 />
    <glyph glyph-name="space" unicode=" " horiz-adv-x="278" 
 />
    <glyph glyph-name="space" unicode="&#xa0;" horiz-adv-x="278" 
 />
    <glyph glyph-name="exclam" unicode="!" horiz-adv-x="338" 
d="M169 105q28 0 42 -17.5t14 -39.5q0 -21 -13.5 -38t-42.5 -17q-28 0 -42 17t-14 38v1.5v1.5q0 20 14 37t42 17v0zM221 553l-28 -382h-48l-28 382q-1 13 -2.5 27t-1.5 28q0 13 2 25.5t7 22.5q7 13 19.5 20t27.5 7q5 0 9.5 -0.5t8.5 -2.5q23 -7 30.5 -28t7.5 -45
q0 -9 -0.5 -17.5t-1.5 -16.5q-1 -6 -1.5 -10.5t-0.5 -9.5v0z" />
    <glyph glyph-name="quotedbl" unicode="&#x22;" horiz-adv-x="331" 
d="M93 422h-16l-31 223q0 2 -0.5 4.5t-0.5 4.5t-0.5 4.5t-0.5 4.5v1.5v1.5q1 18 10 33t31 15q24 0 32.5 -16t8.5 -36v-8.5t-1 -8.5l-32 -223v0zM253 422h-15l-32 223q0 2 -0.5 4t-0.5 5v4v4q0 27 12.5 40.5t27.5 13.5q16 0 29 -13.5t13 -41.5v-7.5t-1 -8.5l-33 -223v0z" />
    <glyph glyph-name="numbersign" unicode="#" horiz-adv-x="745" 
d="M370 710l47 -18l-79 -222h154l80 239l47 -17l-78 -222h139v-47h-154l-50 -146h163v-47h-179l-84 -252l-47 16l81 236h-154l-83 -252l-47 16l82 236h-144v47h159l48 146h-158v47h174l83 240v0zM323 423l-49 -146h149l51 146h-151v0z" />
    <glyph glyph-name="dollar" unicode="$" horiz-adv-x="556" 
d="M260 743h41v-71q33 -1 64.5 -4.5t62.5 -9.5q11 -2 21.5 -4t20.5 -4v-156h-45l-15 93l-15 21q-7 2 -13.5 4t-12.5 4q-17 4 -33.5 6t-34.5 3v-245q75 -23 135.5 -59.5t60.5 -125.5v-6v-7q-4 -76 -61.5 -121t-125.5 -59q-2 -1 -4.5 -1.5t-4.5 -0.5v-101h-41v101
q-51 2 -101.5 7.5t-100.5 17.5v168h46l18 -109l9 -13q5 -2 10.5 -4t10.5 -4q26 -9 52.5 -12.5t55.5 -4.5v261q-70 19 -126 57t-58 120v1.5v1.5v0.5v1.5q0 81 56 123t128 57v74v0zM303 294v-244q47 9 79.5 40t32.5 83q0 54 -33.5 80t-78.5 41v0zM259 622q-42 -11 -70 -39.5
t-28 -75.5v-0.5v-1.5v-1.5v-0.5q1 -46 30 -71.5t68 -39.5v230v0z" />
    <glyph glyph-name="percent" unicode="%" horiz-adv-x="852" 
d="M671 407q76 0 113 -64.5t38 -141.5v-1.5v-1.5q1 -68 -26.5 -127t-82.5 -75q-12 -4 -23 -5.5t-22 -1.5q-73 0 -110.5 64.5t-38.5 142.5v1.5v1.5q-1 79 37 143.5t115 64.5v0zM669 372q-39 -1 -55.5 -39.5t-20.5 -84.5q-1 -11 -1.5 -22t-0.5 -21q0 -19 1 -35.5t2 -27.5
q1 -10 2.5 -21t4.5 -22q6 -28 21.5 -51.5t46.5 -23.5q37 0 53.5 31t22.5 68q3 21 3.5 41t0.5 34t-0.5 34t-4.5 41q-5 37 -21.5 68t-53.5 31v0zM608 671h61l-428 -671h-60l427 671v0zM181 683q76 0 113 -64.5t38 -141.5v-1.5v-1.5q1 -68 -26.5 -127.5t-82.5 -76.5
q-12 -4 -23 -5.5t-22 -1.5q-73 0 -111 66.5t-38 145.5q0 78 37.5 143t114.5 65v0zM179 647q-40 0 -56 -38.5t-20 -84.5q-1 -11 -1.5 -22t-0.5 -21q0 -19 1 -35.5t2 -27.5q1 -9 2.5 -20t3.5 -22q7 -28 22.5 -52t46.5 -24q37 0 53.5 30.5t22.5 66.5q3 22 3.5 42t0.5 34
t-0.5 34t-3.5 41q-6 37 -22.5 68t-53.5 31v0z" />
    <glyph glyph-name="ampersand" unicode="&#x26;" horiz-adv-x="704" 
d="M311 357l172 -186q19 28 33.5 57t22.5 61l-18 19l-55 8v41h203v-41l-72 -10q-14 -43 -31.5 -81t-41.5 -74q-3 -4 -5 -7.5t-5 -7.5l78 -90l91 -5v-41h-176v24l-45 50q-33 -26 -68 -48t-76 -30q-7 -2 -13.5 -3t-12.5 -2q-7 0 -13.5 -0.5t-13.5 -0.5q-37 0 -72 10.5
t-65 32.5q-36 27 -55.5 68t-19.5 85q0 10 1.5 19.5t2.5 18.5q11 53 47 85.5t81 54.5q-31 33 -56.5 70.5t-25.5 83.5q0 6 0.5 12.5t1.5 13.5q12 67 66.5 102t116.5 36h2h2q11 0 20.5 -0.5t19.5 -2.5q55 -9 90 -53.5t35 -97.5v-8t-1 -8q0 -4 -0.5 -8t-1.5 -8
q-11 -48 -46 -76.5t-75 -50.5q-6 -3 -11.5 -6t-10.5 -6v0zM223 335q-25 -18 -45.5 -40t-28.5 -54q-2 -9 -3 -18t-1 -18q0 -24 6 -46.5t19 -42.5q20 -31 51 -49.5t68 -18.5h3.5h2.5q39 1 69.5 15.5t58.5 38.5q2 1 4 2.5t4 3.5l-208 227v0zM276 390q40 20 69 51t29 78v4v4
q-2 44 -25.5 77.5t-72.5 32.5q-41 -1 -66.5 -29.5t-25.5 -68.5v-3.5v-3.5q2 -40 25 -69.5t50 -56.5q4 -4 8.5 -8t8.5 -8v0z" />
    <glyph glyph-name="quotesingle" unicode="'" horiz-adv-x="201" 
d="M74 442h-43q5 6 9.5 11t8.5 11q25 31 43 63.5t18 72.5v4.5v5.5q0 2 -0.5 4.5t-0.5 4.5h-65q-6 10 -9 19t-3 18q0 24 17 40.5t43 16.5q4 0 8 -0.5t8 -1.5q2 0 4 -0.5t4 -1.5q25 -7 37.5 -29t15.5 -46v-5.5v-5.5v-2v-1v-2v-2q-1 -52 -30.5 -95t-64.5 -79v0z" />
    <glyph glyph-name="parenleft" unicode="(" horiz-adv-x="417" 
d="M386 718v-42q-94 -15 -134 -89.5t-52 -161.5q-5 -32 -7 -64t-2 -61q0 -32 1 -68t6 -73q11 -89 52 -165t136 -92v-43q-46 5 -84.5 22.5t-73.5 49.5q-64 59 -90.5 139.5t-30.5 165.5q-1 15 -1 31v32v4v4q2 101 30 196t112 160q31 24 65 37.5t73 17.5v0z" />
    <glyph glyph-name="parenright" unicode=")" horiz-adv-x="417" 
d="M31 718q45 -5 84 -22.5t73 -48.5q65 -60 91 -141.5t31 -166.5q0 -10 0.5 -20t0.5 -20q0 -17 -0.5 -34.5t-1.5 -34.5q-6 -90 -36 -174t-104 -141q-7 -6 -14.5 -11t-14.5 -9q-25 -15 -51 -23.5t-58 -11.5v41q95 17 135.5 93t51.5 165q5 37 6 73t1 68q0 29 -2 61t-6 64
q-12 87 -52.5 161.5t-133.5 89.5v42v0z" />
    <glyph glyph-name="asterisk" unicode="*" horiz-adv-x="500" 
d="M234 491l10 -7l-46 -121l-68 -25l4 72l100 81v0zM266 491l99 -81l4 -72l-67 26l-47 120l11 7v0zM123 589l109 -70l-4 -12l-129 8l-45 56l69 18v0zM377 589l70 -18l-46 -56l-128 -8l-4 13l108 69v0zM250 718l39 -61l-32 -125h-14l-32 125l39 61v0z" />
    <glyph glyph-name="plus" unicode="+" horiz-adv-x="833" 
d="M388 596h58v-269h263v-57h-263v-270h-58v270h-264v57h264v269v0z" />
    <glyph glyph-name="comma" unicode="," horiz-adv-x="278" 
d="M39 -168v33q58 14 84 46t26 89v3.5v3.5h-64q-8 11 -12 21t-4 20q-1 26 18.5 43t44.5 17h5.5t5.5 -1q11 -2 21.5 -7.5t19.5 -16.5q13 -15 18.5 -33t5.5 -38v-8t-1 -9q-2 -22 -10 -43t-19 -38q-25 -38 -60.5 -56.5t-78.5 -24.5v-1z" />
    <glyph glyph-name="hyphen" unicode="-" horiz-adv-x="319" 
d="M47 274h225v-67h-225v67v0z" />
    <glyph glyph-name="period" unicode="." horiz-adv-x="278" 
d="M139 118q31 0 46.5 -19.5t15.5 -42.5q1 -24 -14.5 -43.5t-47.5 -19.5q-31 0 -46.5 19t-15.5 42q-1 24 15 44t47 20v0z" />
    <glyph glyph-name="slash" unicode="/" horiz-adv-x="481" 
d="M399 671h61l-428 -763h-59l426 763v0z" />
    <glyph glyph-name="zero" unicode="0" horiz-adv-x="556" 
d="M278 683q111 0 163.5 -80.5t67.5 -176.5q3 -23 4.5 -45.5t1.5 -44.5q0 -23 -1.5 -48.5t-5.5 -50.5q-12 -77 -49.5 -145t-114.5 -92q-19 -5 -37.5 -8t-35.5 -3q-102 -1 -158.5 83t-67.5 186q-1 5 -1.5 10.5t-0.5 10.5q-1 13 -1.5 26.5t-0.5 26.5q0 19 1 39t3 40
q12 102 64.5 186.5t168.5 85.5v0zM278 636q-68 -1 -98.5 -61t-38.5 -132q-4 -26 -5 -51t-1 -48q-1 -17 -0.5 -32t1.5 -27q1 -18 2.5 -36.5t4.5 -37.5q5 -36 16.5 -71t32.5 -63q16 -19 38.5 -30t47.5 -11q9 0 18 1.5t18 4.5q46 18 68 66t30 103q5 34 6.5 66.5t1.5 57.5
t-1 58.5t-7 69.5q-9 64 -38.5 118.5t-95.5 54.5v0z" />
    <glyph glyph-name="one" unicode="1" horiz-adv-x="556" 
d="M311 683h28v-620l12 -16l108 -5v-42h-335v43l115 6l12 17v538l-157 -28v42l217 65v0z" />
    <glyph glyph-name="two" unicode="2" horiz-adv-x="556" 
d="M141 79h301l18 85h45v-164h-463v63q8 7 16.5 14t17.5 14q42 34 83.5 69t80.5 72l5.5 5.5t5.5 4.5q51 49 93 107.5t42 131.5q1 74 -37 112t-94 38q-22 0 -45 -5.5t-46 -17.5v-107q-13 -8 -25 -12t-23 -4q-24 -1 -38 16t-14 42q0 10 2.5 21t8.5 23q12 23 38 45t70 36
q15 5 30.5 8.5t31.5 4.5q8 1 15.5 1.5t15.5 0.5q80 0 142.5 -44.5t64.5 -138.5v-3v-4q0 -62 -32 -113.5t-75 -95.5q-55 -55 -114 -105.5t-121 -99.5v0z" />
    <glyph glyph-name="three" unicode="3" horiz-adv-x="556" 
d="M317 353q35 -4 68 -13.5t58 -33.5q24 -22 36 -51.5t12 -61.5v-10.5t-1 -10.5q-11 -87 -80.5 -131t-150.5 -49q-5 -1 -10.5 -1h-10.5q-19 0 -37.5 1.5t-36.5 6.5q-45 10 -72.5 29t-39.5 40q-5 9 -7.5 17.5t-2.5 16.5q0 20 14 34t39 14q8 0 15.5 -1t16.5 -4l31 -85
q21 -11 43.5 -17t44.5 -6q41 0 76.5 19.5t57.5 59.5q8 14 13 29.5t6 30.5q1 4 1 8v8q0 32 -13.5 61t-43.5 46q-19 11 -40.5 15.5t-43.5 4.5q-15 0 -30 -1t-30 -3v59h3.5h3.5h3h3q35 0 69 7t60 32q18 18 26 41t9 48q0 12 -2 23.5t-5 22.5q-13 44 -45 63.5t-71 20.5
q-6 0 -12.5 -0.5t-13.5 -1.5q-19 -3 -38 -10t-36 -17v-94q-11 -8 -21.5 -11.5t-20.5 -3.5q-23 0 -37.5 17t-14.5 41q0 9 2 18.5t7 19.5q12 26 44 49.5t89 36.5q15 3 31 5t32 2h5.5h5.5q72 -3 131.5 -40.5t59.5 -118.5v-3.5v-4.5q-4 -71 -45.5 -107t-103.5 -56v0z" />
    <glyph glyph-name="four" unicode="4" horiz-adv-x="556" 
d="M368 677h58v-418h113v-65h-113v-230h-77v230h-322v65l341 418v0zM349 568l-247 -309h247v309v0z" />
    <glyph glyph-name="five" unicode="5" horiz-adv-x="556" 
d="M101 671h358v-78h-296v-200q30 8 57 11t52 3q110 0 163.5 -58t53.5 -131v-10t-1 -10q-6 -63 -49.5 -119t-124.5 -78q-16 -4 -38 -6t-47 -2q-8 0 -16.5 0.5t-16.5 0.5q-49 4 -91 21t-53 55q-1 5 -1.5 9t-0.5 8q-1 26 18.5 38t43.5 12q5 0 10 -0.5t10 -1.5l40 -86
q17 -5 33 -8t32 -3q66 -1 113 40.5t48 111.5q0 10 -1 19.5t-3 19.5q-12 67 -66.5 92t-117.5 27h-8h-8q-25 0 -48.5 -2t-44.5 -5v330v0z" />
    <glyph glyph-name="six" unicode="6" horiz-adv-x="556" 
d="M443 714v-58q-137 -4 -202.5 -73.5t-93.5 -197.5q35 25 76 40.5t83 18.5h7.5h7.5q45 0 87.5 -18.5t73.5 -61.5q19 -26 30 -55.5t13 -58.5q1 -5 1 -10v-10q0 -79 -49 -146t-132 -86q-15 -4 -30 -6t-31 -2q-39 0 -76.5 13t-68.5 39q-49 43 -68.5 102t-20.5 121v4.5v4.5
q0 15 1 30t2 29q13 168 119.5 269t270.5 112v0zM145 340q-1 -16 -1.5 -33t-0.5 -34q0 -10 0.5 -20.5t0.5 -21.5q3 -54 21 -103t64 -76q16 -9 31.5 -13t29.5 -4q44 0 79.5 30t51.5 75q6 18 9.5 38t3.5 41v4.5v4.5q-2 45 -21.5 85.5t-62.5 59.5q-10 5 -21.5 7.5t-22.5 4.5
q-5 0 -10.5 0.5t-11.5 0.5h-6.5h-6.5q-34 -3 -66.5 -15.5t-59.5 -30.5v0z" />
    <glyph glyph-name="seven" unicode="7" horiz-adv-x="556" 
d="M71 671h460v-40l-332 -645v-22h-83l326 631h-308l-16 -91h-47v167v0z" />
    <glyph glyph-name="eight" unicode="8" horiz-adv-x="556" 
d="M363 351q59 -22 101 -62.5t42 -105.5v-10.5t-1 -11.5q-5 -46 -33 -84.5t-68 -61.5q-29 -15 -61.5 -21.5t-65.5 -6.5h-4.5h-4.5q-89 1 -156.5 48.5t-68.5 140.5v4t1 4v4v4q5 62 45 99t92 59q-30 15 -54 34.5t-38 50.5q-7 17 -10 34t-3 35q0 6 0.5 12t1.5 13q0 6 1.5 12
t2.5 12q16 63 70.5 95.5t115.5 36.5h7.5h7.5h4.5h4.5q90 -3 137.5 -52t47.5 -111q0 -8 -0.5 -15.5t-2.5 -15.5q-7 -40 -34.5 -77t-76.5 -63v0zM219 329q-43 -26 -70.5 -58t-27.5 -88q0 -70 46 -108.5t110 -38.5h4t4 1h4h4q56 3 92 41.5t35 93.5q-1 52 -40 81t-86 47
q-16 7 -32.5 12.5t-30.5 11.5q-3 1 -6 2.5t-6 2.5v0zM321 369q32 22 51 51.5t25 59.5q2 9 3 17.5t1 16.5q0 50 -30 86.5t-88 37.5h-3.5h-3.5q-2 -1 -3.5 -1h-3.5q-46 -4 -78 -37.5t-32 -79.5v-2v-1v-2v-2q2 -49 37 -77.5t77 -46.5q12 -6 24.5 -11t23.5 -9v0z" />
    <glyph glyph-name="nine" unicode="9" horiz-adv-x="556" 
d="M126 -51l-23 46q4 3 7.5 4.5t7.5 2.5q97 49 165.5 106.5t114.5 160.5q-43 -19 -81.5 -27.5t-71.5 -8.5q-100 -1 -150.5 64t-50.5 145v6.5v7.5q5 84 64 154.5t173 70.5q11 0 22.5 -0.5t23.5 -2.5q101 -13 142 -85.5t41 -160.5v-13.5t-1 -13.5q-2 -40 -11 -79t-24 -72
q-49 -112 -143 -187.5t-205 -116.5v-1zM411 319q6 27 9.5 55t3.5 56q0 26 -3.5 52t-11.5 51q-16 46 -52.5 74.5t-80.5 28.5q-8 0 -16 -1t-16 -4q-12 -3 -24 -9.5t-23 -15.5q-30 -25 -46 -66.5t-16 -85.5q-1 -64 35 -116.5t112 -52.5q27 0 59.5 8t69.5 26v0z" />
    <glyph glyph-name="colon" unicode=":" horiz-adv-x="319" 
d="M160 118q31 0 46 -19.5t15 -42.5q1 -24 -14.5 -43.5t-46.5 -19.5t-46.5 19t-16.5 42q0 24 16 44t47 20v0zM160 481q31 0 46 -19.5t15 -43.5q1 -24 -14.5 -44t-46.5 -20q-30 0 -45.5 19t-17.5 41v1.5v1.5q0 24 16 44t47 20v0z" />
    <glyph glyph-name="semicolon" unicode=";" horiz-adv-x="319" 
d="M65 -168v33q57 14 83.5 46t26.5 89v3.5v3.5h-65q-8 11 -12 21t-4 20q-1 26 18.5 43t44.5 17h5.5t5.5 -1q11 -2 21.5 -7.5t19.5 -16.5q14 -15 19.5 -33.5t5.5 -38.5v-5.5v-5.5q-2 -22 -10.5 -45t-20.5 -41q-24 -37 -60 -56t-78 -25v-1zM160 481q31 0 46 -19.5t15 -43.5
q1 -24 -14.5 -44t-46.5 -20q-30 0 -45.5 19t-17.5 41v1.5v1.5q0 24 16 44t47 20v0z" />
    <glyph glyph-name="less" unicode="&#x3c;" horiz-adv-x="833" 
d="M704 559v-62l-488 -199l488 -198v-63l-575 236v50l575 236v0z" />
    <glyph glyph-name="equal" unicode="=" horiz-adv-x="833" 
d="M124 233h585v-57h-585v57v0zM124 420h585v-57h-585v57v0z" />
    <glyph glyph-name="greater" unicode="&#x3e;" horiz-adv-x="833" 
d="M129 559l575 -236v-50l-575 -236v63l488 198l-488 199v62v0z" />
    <glyph glyph-name="question" unicode="?" horiz-adv-x="486" 
d="M200 105q29 0 43 -17.5t14 -39.5q0 -21 -14 -38t-43 -17q-27 0 -40.5 17t-14.5 38v1.5v1.5q1 20 14.5 37t40.5 17v0zM227 288v-117h-53v146q41 17 75.5 40.5t53.5 64.5q6 13 10 28t5 30q1 4 1 7.5v7.5q0 11 -1.5 21t-3.5 20q-11 56 -49.5 78t-90.5 23l-41 -99h-3.5h-3.5
q-1 -1 -2.5 -1h-3.5q-34 0 -50 14.5t-16 34.5q0 6 1 12.5t4 12.5q8 20 29.5 38t53.5 26q8 2 16 3.5t16 2.5t16 1.5t16 0.5q77 0 138.5 -43.5t65.5 -129.5v-2v-1v-2v-2q0 -85 -57 -133.5t-126 -81.5v0z" />
    <glyph glyph-name="at" unicode="@" horiz-adv-x="586" 
d="M67 671h468v-42l-381 -580h302l11 14l18 118h54v-181h-494v41l379 582h-267l-19 -13l-16 -94h-55v155v0zM150 932h55l87 -141l88 141h54l-110 -190h-64l-110 190v0z" />
    <glyph glyph-name="A" unicode="A" horiz-adv-x="639" 
d="M284 679h66l240 -626l61 -12v-41h-228v41l62 5l7 14l-72 191h-236l-71 -191l10 -14l65 -5v-41h-195v41l57 12l234 626v0zM300 574l-99 -277h202l-103 277v0z" />
    <glyph glyph-name="B" unicode="B" horiz-adv-x="604" 
d="M33 671h255h11.5h11.5q77 -3 141.5 -34.5t64.5 -126.5q0 -68 -43.5 -102t-101.5 -52q79 -4 131.5 -38.5t54.5 -123.5v-2.5v-3.5q0 -94 -68 -136t-149 -50q-11 -1 -22 -1.5t-22 -0.5h-264v41l57 5l17 14v551l-17 14l-57 6v40v0zM197 50q16 -1 32.5 -1.5t33.5 -0.5h6.5h7.5
q68 1 125.5 27t57.5 112q0 85 -51.5 110.5t-116.5 25.5h-12t-12 -1q-18 0 -36 -1.5t-35 -3.5v-267v0zM197 367h6h6h5h6h6.5h6.5q70 1 128 25t57 113q-2 77 -53 99t-113 22h-14t-13 -1q-7 0 -14 -0.5t-14 -0.5v-257v0z" />
    <glyph glyph-name="C" unicode="C" horiz-adv-x="632" 
d="M588 23q-47 -16 -97 -24.5t-100 -8.5h-7.5h-7.5q-147 3 -239 101.5t-94 244.5q-2 150 95 248t246 99q52 1 103 -9.5t101 -24.5v-154h-56l-15 91l-13 18q-31 14 -61 20.5t-59 6.5q-105 0 -171.5 -81.5t-66.5 -210.5q0 -136 70 -216.5t185 -81.5q22 0 45 3t48 10l16 16
l24 111h54v-158v0z" />
    <glyph glyph-name="D" unicode="D" horiz-adv-x="693" 
d="M280 671h10.5h10.5q67 -2 132 -20.5t116 -65.5q52 -49 75.5 -114.5t24.5 -135.5q-1 -79 -30.5 -152t-94.5 -120q-55 -40 -117 -51.5t-127 -11.5h-247v41l57 5l17 14v551l-17 14l-57 6v40h247v0zM197 625v-579h12.5h12.5h12.5h13.5q47 0 93 5.5t88 27.5q59 32 85 89.5
t32 120.5q1 12 1.5 23.5t0.5 23.5t-0.5 24.5t-1.5 25.5q-7 62 -33 119.5t-85 88.5q-39 21 -82 26.5t-86 5.5q-8 0 -16 -0.5t-15 -0.5h-16h-16v0z" />
    <glyph glyph-name="E" unicode="E" horiz-adv-x="576" 
d="M33 0v41l57 5l17 14v551l-17 14l-57 6v40h479v-146h-56l-14 85l-14 15h-231v-253h164l14 14l10 73h47v-220h-47l-10 72l-14 15h-164v-280h268l14 17l17 100h52v-163h-515v0z" />
    <glyph glyph-name="F" unicode="F" horiz-adv-x="537" 
d="M33 0v41l57 5l17 14v551l-17 14l-65 6v40h480v-156h-55l-15 95l-13 15h-225v-263h164l14 14l10 73h47v-220h-47l-10 72l-14 15h-164v-256l17 -14l71 -5v-41h-252v0z" />
    <glyph glyph-name="G" unicode="G" horiz-adv-x="694" 
d="M417 322h250v-41l-55 -5l-17 -14v-239q-50 -14 -101 -23.5t-103 -9.5h-3.5h-3.5h-3.5h-3.5q-148 3 -240 101.5t-94 244.5q-2 158 96 250.5t251 96.5h3.5h3.5h3.5h3.5q48 0 95.5 -7.5t94.5 -21.5v-159h-56l-15 91l-13 18q-32 14 -63 20.5t-60 6.5q-106 0 -173.5 -80.5
t-67.5 -211.5v-6.5v-7.5q3 -95 51.5 -178t151.5 -101q6 -1 12.5 -2t13.5 -2q7 0 13.5 -0.5t12.5 -0.5q13 0 26 1t26 3l26 4t26 5v208l-17 14l-71 5v41v0z" />
    <glyph glyph-name="H" unicode="H" horiz-adv-x="738" 
d="M33 671h243v-40l-62 -6l-17 -14v-236h344v236l-17 14l-62 6v40h243v-40l-57 -6l-17 -14v-551l17 -14l57 -5v-41h-243v41l62 5l17 14v269h-344v-269l17 -14l62 -5v-41h-243v41l57 5l17 14v551l-17 14l-57 6v40v0z" />
    <glyph glyph-name="I" unicode="I" horiz-adv-x="324" 
d="M35 0v41l64 5l16 14v551l-16 14l-64 6v40h254v-40l-64 -6l-17 -14v-551l17 -14l64 -5v-41h-254v0z" />
    <glyph glyph-name="J" unicode="J" horiz-adv-x="444" 
d="M271 611l-17 14l-66 6v40h252v-40l-62 -6l-17 -14v-355v-22t-1 -22q-1 -38 -9.5 -75.5t-31.5 -69.5q-23 -33 -59 -51t-76 -23q-10 -2 -20.5 -2.5t-21.5 -0.5q-33 0 -65.5 6t-64.5 16v167h56l24 -126l14 -13q10 -1 19.5 -2.5t17.5 -1.5q81 0 104 64t24 141v5.5v5.5v359v0z
" />
    <glyph glyph-name="K" unicode="K" horiz-adv-x="611" 
d="M33 0v41l57 5l17 14v551l-17 14l-57 6v40h243v-40l-62 -6l-17 -14v-271h38l222 271l-6 14l-56 6v40h209v-40l-67 -9l-210 -250l227 -326l73 -5v-41h-164v30l-192 269h-74v-239l17 -14l62 -5v-41h-243v0z" />
    <glyph glyph-name="L" unicode="L" horiz-adv-x="520" 
d="M27 0v41l63 5l17 14v551l-17 14l-63 6v40h244v-40l-57 -6l-17 -14v-565h226l14 17l17 119h52v-182h-479v0z" />
    <glyph glyph-name="M" unicode="M" horiz-adv-x="866" 
d="M31 0v41l60 8l18 19v543l-13 14l-66 6v40h212v-27l188 -502l190 498v31h214v-40l-63 -6l-12 -14v-551l12 -14l63 -5v-41h-239v41l66 5l10 14v564l-237 -624h-43l-228 614v-546l19 -19l60 -8v-41h-211v0z" />
    <glyph glyph-name="N" unicode="N" horiz-adv-x="713" 
d="M29 0v41l61 8l18 19v543l-18 14l-64 6v40h188v-25l341 -512v470l-18 18l-60 9v40h211v-40l-61 -9l-18 -18v-604h-66l-381 568v-500l18 -19l60 -8v-41h-211v0z" />
    <glyph glyph-name="O" unicode="O" horiz-adv-x="731" 
d="M366 688q157 -1 239.5 -111t83.5 -242v-1.5v-1.5q0 -112 -59.5 -210t-183.5 -127q-21 -5 -41 -7.5t-40 -2.5q-124 -1 -213.5 82.5t-105.5 213.5q-1 6 -1.5 12.5t-0.5 13.5q-1 7 -1 13.5v12.5q-1 140 85 247.5t238 107.5v0zM366 634q-111 0 -166 -92.5t-56 -203.5v-1.5
v-1.5q1 -112 56.5 -205t165.5 -93q103 0 153.5 75t61.5 166q1 14 2 28.5t1 28.5t-1 29t-3 30q-11 90 -61.5 165t-152.5 75v0z" />
    <glyph glyph-name="P" unicode="P" horiz-adv-x="558" 
d="M33 0v41l57 5l17 14v551l-17 14l-65 6v40h228h34.5t35.5 -2q44 -3 86.5 -15.5t73.5 -45.5q26 -27 37 -61.5t11 -71.5v-10.5v-10.5q-1 -11 -2.5 -21.5t-4.5 -20.5q-14 -64 -65 -102.5t-113 -50.5q-17 -4 -35 -5.5t-36 -1.5q-19 0 -38.5 1.5t-39.5 3.5v-197l17 -14l71 -5
v-41h-252v0zM197 305q5 0 9.5 -0.5t9.5 -1.5q10 0 19.5 -0.5t18.5 -0.5q75 -1 129.5 32.5t54.5 130.5q1 106 -58 132t-138 27h-11.5h-10.5q-6 -1 -11.5 -1h-11.5v-318v0z" />
    <glyph glyph-name="Q" unicode="Q" horiz-adv-x="731" 
d="M414 -10q6 -70 46.5 -94t93.5 -24q16 0 32 1.5t32 3.5q8 2 16 3t16 3v-42q-23 -4 -47 -7.5t-49 -6.5q-12 -1 -24 -1.5t-24 -0.5q-73 0 -128.5 33.5t-58.5 132.5q-115 18 -188.5 94.5t-87.5 196.5q-1 14 -2.5 28t-1.5 27q0 145 90 248.5t232 104.5q21 0 43 -3t44 -8
q119 -29 182 -128.5t63 -215.5q0 -13 -0.5 -26t-2.5 -27q-15 -121 -87.5 -196.5t-188.5 -94.5v-1zM366 39q112 0 167 93t56 205q0 83 -29.5 157.5t-88.5 111.5q-20 12 -42.5 19.5t-46.5 8.5q-3 1 -7 1h-8q-21 0 -41.5 -4t-40.5 -12q-53 -23 -86 -72.5t-44 -105.5
q-4 -22 -6.5 -46t-2.5 -50q0 -11 0.5 -22t1.5 -22q7 -98 57.5 -180t160.5 -82v0z" />
    <glyph glyph-name="R" unicode="R" horiz-adv-x="646" 
d="M33 671h255q92 0 166.5 -34t74.5 -145q0 -76 -48 -113t-114 -54q76 -23 96 -55.5t29 -74.5q5 -24 12 -51.5t25 -57.5q19 -33 50.5 -39.5t65.5 -7.5h2.5h2.5h3.5h2.5v-38q-22 -3 -42.5 -5.5t-39.5 -2.5q-52 0 -89.5 24t-58.5 93q-9 30 -16 53.5t-14 42.5q-19 55 -48 73.5
t-107 19.5h-21t-23 -1v-238l17 -14l57 -5v-41h-238v41l57 5l17 14v551l-17 14l-57 6v40v0zM197 625v-279h11.5h11.5q6 -1 12 -1h12h1.5h1.5q65 0 120.5 20.5t61.5 103.5v3v3v2.5v2.5q0 35 -13 67.5t-42 52.5q-25 17 -54 21.5t-59 4.5h-16.5h-16.5q-8 -1 -15.5 -1h-15.5v0z
" />
    <glyph glyph-name="S" unicode="S" horiz-adv-x="556" 
d="M60 20v176h59l12 -115l13 -17q23 -10 51.5 -17t59.5 -7q32 0 62.5 8.5t51.5 27.5q18 17 28.5 40.5t10.5 48.5q0 15 -4 29.5t-12 27.5q-14 21 -42.5 37.5t-59.5 30.5q-22 9 -43.5 17t-37.5 15q-49 21 -90.5 57t-46.5 94q0 2 -0.5 4t-0.5 5v4v4q0 45 20.5 85.5t57.5 66.5
q34 23 73 32.5t79 9.5q11 0 22 -0.5t22 -1.5q33 -4 65.5 -11t61.5 -16v-155h-52l-15 95q-18 20 -45.5 29.5t-56.5 9.5h-7.5t-6.5 -1q-15 -1 -29 -4t-27 -8q-32 -13 -50.5 -43.5t-18.5 -65.5q0 -40 25.5 -65.5t59.5 -41.5q12 -6 25 -11.5t26 -10.5q9 -3 18 -6.5t18 -7.5
q50 -20 94.5 -48.5t61.5 -82.5q4 -12 5.5 -24t1.5 -25q0 -40 -16.5 -77t-47.5 -63q-40 -32 -92.5 -46t-108.5 -14h-7.5h-7.5q-42 1 -83 9t-76 22v0z" />
    <glyph glyph-name="T" unicode="T" horiz-adv-x="597" 
d="M16 671h565v-154h-55l-14 93l-14 15h-153v-565l17 -14l67 -5v-41h-261v41l67 5l17 14v565h-153l-14 -15l-14 -93h-55v154v0z" />
    <glyph glyph-name="U" unicode="U" horiz-adv-x="694" 
d="M25 671h245v-40l-62 -6l-17 -14v-362v-17t1 -17q1 -28 7 -55.5t23 -49.5q20 -26 50 -39.5t63 -18.5q8 -1 17 -1.5t17 -0.5t16.5 0.5t16.5 1.5q33 4 63 18t50 40q18 24 24 51.5t7 56.5q1 8 1 15.5v15.5v355l-19 18l-60 9v40h211v-40l-60 -9l-18 -18v-364v-19.5t-1 -19.5
q-1 -36 -9.5 -71.5t-33.5 -65.5q-28 -33 -68 -48.5t-83 -21.5q-14 -2 -28 -3t-28 -1q-15 0 -30.5 1t-30.5 4q-42 5 -80.5 21t-65.5 48q-25 30 -33.5 65.5t-9.5 71.5q-1 10 -1 19.5v19.5v371l-17 14l-57 6v40v0z" />
    <glyph glyph-name="V" unicode="V" horiz-adv-x="618" 
d="M-22 671h232v-40l-58 -6l-11 -14l188 -504l181 504l-10 14l-62 6v40h199v-40l-62 -12l-230 -623h-69l-235 623l-63 12v40v0z" />
    <glyph glyph-name="W" unicode="W" horiz-adv-x="928" 
d="M231 0l-168 617l-63 14v40h224v-40l-63 -8l-8 -14l129 -462l161 524h70l164 -535l121 469l-11 14l-67 12v40h207v-40l-67 -14l-159 -617h-68l-169 547l-166 -547h-67v0z" />
    <glyph glyph-name="X" unicode="X" horiz-adv-x="599" 
d="M11 671h241v-40l-60 -6l-8 -12l131 -206l142 202l-9 13l-58 9v40h204v-40l-64 -10l-183 -261l194 -307l68 -12v-41h-253v41l67 7l7 14l-141 227l-158 -224l6 -18l67 -6v-41h-212v41l65 13l201 281l-181 283l-66 13v40v0z" />
    <glyph glyph-name="Y" unicode="Y" horiz-adv-x="586" 
d="M-12 671h231v-40l-57 -6l-10 -11l153 -275l168 267l-9 14l-61 11v40h204v-40l-61 -13l-208 -333v-225l16 -14l68 -5v-41h-259v41l68 5l16 14v212l-199 349l-60 10v40v0z" />
    <glyph glyph-name="Z" unicode="Z" horiz-adv-x="586" 
d="M67 671h468v-42l-381 -580h302l11 14l18 118h54v-181h-494v41l379 582h-267l-19 -13l-16 -94h-55v155v0z" />
    <glyph glyph-name="bracketleft" unicode="[" horiz-adv-x="556" 
d="M60 20v176h59l12 -115l13 -17q23 -10 51.5 -17t59.5 -7q32 0 62.5 8.5t51.5 27.5q18 17 28.5 40.5t10.5 48.5q0 15 -4 29.5t-12 27.5q-14 21 -42.5 37.5t-59.5 30.5q-22 9 -43.5 17t-37.5 15q-49 21 -90.5 57t-46.5 94q0 2 -0.5 4t-0.5 5v4v4q0 45 20.5 85.5t57.5 66.5
q34 23 73 32.5t79 9.5q11 0 22 -0.5t22 -1.5q33 -4 65.5 -11t61.5 -16v-155h-52l-15 95q-18 20 -45.5 29.5t-56.5 9.5h-7.5t-6.5 -1q-15 -1 -29 -4t-27 -8q-32 -13 -50.5 -43.5t-18.5 -65.5q0 -40 25.5 -65.5t59.5 -41.5q12 -6 25 -11.5t26 -10.5q9 -3 18 -6.5t18 -7.5
q50 -20 94.5 -48.5t61.5 -82.5q4 -12 5.5 -24t1.5 -25q0 -40 -16.5 -77t-47.5 -63q-40 -32 -92.5 -46t-108.5 -14h-7.5h-7.5q-42 1 -83 9t-76 22v0zM135 932h55l87 -141l88 141h54l-110 -190h-64l-110 190v0z" />
    <glyph glyph-name="backslash" unicode="\" horiz-adv-x="693" 
d="M280 671h10.5h10.5q67 -2 132 -20.5t116 -65.5q52 -49 75.5 -114.5t24.5 -135.5q-1 -79 -30.5 -152t-94.5 -120q-55 -40 -117 -51.5t-127 -11.5h-247v41l57 5l17 14v267h-92v48h92v236l-17 14l-57 6v40h247v0zM197 327v-281h12.5h12.5h12.5h13.5q47 0 93 5.5t88 27.5
q59 32 85 89.5t32 120.5q1 12 1.5 23.5t0.5 23.5t-0.5 24.5t-1.5 25.5q-7 62 -33 119.5t-85 88.5q-39 21 -82 26.5t-86 5.5q-8 0 -16 -0.5t-15 -0.5h-16h-16v-250h166v-48h-166v0z" />
    <glyph glyph-name="bracketright" unicode="]" horiz-adv-x="632" 
d="M588 23q-47 -16 -97 -24.5t-100 -8.5h-7.5h-7.5q-147 3 -239 101.5t-94 244.5q-2 150 95 248t246 99q52 1 103 -9.5t101 -24.5v-154h-56l-15 91l-13 18q-31 14 -61 20.5t-59 6.5q-105 0 -171.5 -81.5t-66.5 -210.5q0 -136 70 -216.5t185 -81.5q22 0 45 3t48 10l16 16
l24 111h54v-158v0zM424 932h99l-146 -190h-50l97 190v0z" />
    <glyph glyph-name="asciicircum" unicode="^" horiz-adv-x="632" 
d="M588 23q-47 -16 -97 -24.5t-100 -8.5h-7.5h-7.5q-147 3 -239 101.5t-94 244.5q-2 150 95 248t246 99q52 1 103 -9.5t101 -24.5v-154h-56l-15 91l-13 18q-31 14 -61 20.5t-59 6.5q-105 0 -171.5 -81.5t-66.5 -210.5q0 -136 70 -216.5t185 -81.5q22 0 45 3t48 10l16 16
l24 111h54v-158v0zM223 932h55l87 -141l88 141h54l-110 -190h-64l-110 190v0z" />
    <glyph glyph-name="underscore" unicode="_" horiz-adv-x="500" 
d="M0 271h500v-61h-500v61v0z" />
    <glyph glyph-name="grave" unicode="`" horiz-adv-x="468" 
d="M45 0v50l268 385h-186l-14 -16l-11 -77h-47v139h361v-38l-277 -397h215l15 16l11 84h51v-146h-386v0zM92 736h55l87 -141l88 141h54l-110 -190h-64l-110 190v0z" />
    <glyph glyph-name="a" unicode="a" horiz-adv-x="507" 
d="M334 58q-37 -24 -77 -43t-87 -20q-43 -1 -76 21t-46 65q-1 5 -2.5 10t-1.5 10q-1 5 -1.5 10t-0.5 10q0 34 17.5 63t48.5 48q22 13 54.5 24.5t67.5 20.5q28 8 55 14.5t49 11.5v10t1 10v10.5v10.5q0 26 -6 50.5t-29 39.5q-12 8 -25.5 11t-28.5 3h-6h-6q-18 -2 -35.5 -6.5
t-32.5 -10.5v-84q-3 0 -8 -0.5t-11 -0.5t-12 -0.5t-12 -0.5h-2h-2q-16 0 -30 2.5t-19 9.5q-3 5 -4 10.5t-2 10.5v4.5t1 4.5q3 16 13.5 31.5t22.5 25.5q2 2 4.5 4t5.5 4q28 19 61 28t67 11q6 1 11.5 1h11.5h8h8q8 -1 16.5 -1.5t15.5 -1.5q61 -9 84 -47.5t24 -94.5v-290
l17 -16l53 -5v-36h-141l-13 58v0zM334 92v176q-17 -5 -39.5 -11t-45.5 -14q-45 -15 -82.5 -40.5t-37.5 -69.5q0 -4 0.5 -8.5t1.5 -9.5q7 -37 27 -52t47 -15q11 0 22.5 2t22.5 5q16 5 32 11.5t30 14.5q6 2 11.5 5t10.5 6v0z" />
    <glyph glyph-name="b" unicode="b" horiz-adv-x="539" 
d="M131 736h38v-280q34 14 68 24t69 10q12 0 24.5 -1t25.5 -4q62 -13 98.5 -65t45.5 -112q0 -2 0.5 -3.5t0.5 -3.5q2 -11 2.5 -22.5t0.5 -22.5q0 -56 -20.5 -109t-66.5 -90q-41 -33 -90 -44.5t-99 -12.5h-7.5h-6.5h-129v669h-77v31l123 36v0zM169 46h14h14q7 -1 14 -1h14h12
t11 1q18 0 35.5 3t33.5 10q47 18 68.5 60t26.5 88q1 9 1.5 17.5t0.5 17.5v5.5v4.5q-1 97 -43.5 140.5t-111.5 43.5q-20 0 -43 -3.5t-47 -10.5v-376v0z" />
    <glyph glyph-name="c" unicode="c" horiz-adv-x="446" 
d="M425 42q-47 -26 -89 -37.5t-79 -11.5q-106 0 -162.5 77.5t-57.5 171.5v1.5v1.5q0 80 43.5 150t133.5 89q20 5 37.5 6.5t33.5 1.5q62 0 95 -24t40 -53q2 -5 2.5 -10t0.5 -10q0 -22 -13.5 -39t-37.5 -17q-10 0 -22.5 4t-26.5 12v82q-8 5 -16.5 8t-17.5 4q-4 1 -8.5 1.5
t-8.5 0.5q-16 0 -31.5 -4.5t-29.5 -12.5q-38 -22 -57 -62.5t-23 -84.5q-1 -9 -1.5 -17.5t-0.5 -16.5v-16t1 -16q6 -86 52.5 -127t109.5 -41q16 0 33 2.5t34 7.5q16 6 33 13.5t33 17.5v-52v0z" />
    <glyph glyph-name="d" unicode="d" horiz-adv-x="565" 
d="M383 669h-77v31l122 36h38v-679l17 -16l48 -5v-36h-148v52q-44 -32 -83.5 -46.5t-74.5 -14.5q-88 0 -137.5 74t-50.5 165v5.5v5.5q4 94 65.5 171.5t193.5 77.5q20 0 42 -2t45 -7v188v0zM383 89v343q-22 7 -44 11.5t-45 4.5q-9 0 -18 -1t-18 -3q-64 -14 -96 -66t-37 -112
q-1 -6 -1 -11.5v-11.5v-5.5v-4.5q2 -87 43.5 -132t102.5 -45q26 0 55 8.5t58 24.5v0z" />
    <glyph glyph-name="e" unicode="e" horiz-adv-x="491" 
d="M448 106v-55q-42 -27 -90 -43t-98 -16q-17 0 -34.5 2t-34.5 6q-77 22 -114.5 89.5t-38.5 143.5v2v2q-1 32 5.5 62.5t18.5 58.5q26 59 79.5 94t112.5 39q3 1 6.5 1h7.5q38 0 73.5 -14.5t63.5 -45.5q26 -29 35 -65t9 -74v-7.5v-7.5q-1 -4 -1 -7.5v-7.5h-325v-14t1 -14
q2 -50 21 -95.5t66 -71.5q19 -10 38.5 -15t38.5 -5q42 0 83 18t77 40v0zM359 305v4.5v5.5v4.5v4.5q0 16 -1.5 31t-7.5 29q-11 29 -36.5 45t-55.5 16h-4h-4q-3 0 -5 -0.5t-4 -0.5q-52 -7 -80.5 -48.5t-32.5 -90.5h231v0z" />
    <glyph glyph-name="f" unicode="f" horiz-adv-x="321" 
d="M29 0v36l53 5l17 16v364h-63v32l64 15q0 8 0.5 16t0.5 16q4 59 23 114.5t69 93.5q22 17 49.5 26.5t55.5 9.5q11 0 21 -1.5t20 -4.5q20 -7 30.5 -21t10.5 -30t-10 -30t-30 -20l-91 60q-39 -21 -51.5 -61t-14.5 -83v-9.5v-9.5v-17.5t1 -16.5v-16v-16h139v-47h-140v-364
l17 -16l62 -5v-36h-233v0z" />
    <glyph glyph-name="g" unicode="g" horiz-adv-x="523" 
d="M369 463h143v-47h-110q15 -25 22 -48t7 -45q0 -67 -56.5 -111.5t-142.5 -44.5h-2.5h-2.5h-2.5h-2.5q-5 -13 -7.5 -25t-2.5 -24v-5.5v-4.5t0.5 -4.5t0.5 -5.5h1.5h1.5q22 -4 51.5 -7.5t61.5 -9.5q45 -9 85 -25.5t55 -46.5q5 -10 7.5 -21t2.5 -22q0 -5 -0.5 -10t-1.5 -10
q-1 -10 -4.5 -20.5t-8.5 -19.5q-22 -44 -65.5 -71.5t-90.5 -39.5l-18 -4t-18 -3q-16 -2 -30 -3.5t-28 -1.5q-88 0 -131.5 41t-43.5 91q0 40 27.5 74.5t81.5 45.5q-4 11 -6 21.5t-2 19.5q0 18 5.5 34.5t16.5 32.5q5 8 11 16t13 16q-64 15 -94.5 56.5t-30.5 89.5v2.5v3.5
q2 61 49.5 112.5t133.5 52.5q28 0 59.5 -7t65.5 -22v0zM206 30q-45 -16 -65.5 -41.5t-20.5 -53.5q0 -40 37 -72.5t98 -32.5h3.5h3.5h3h3q9 1 18 2.5t18 3.5q38 10 69.5 35t31.5 65v3.5v3.5t-0.5 3.5t-0.5 3.5q-3 23 -18.5 36t-36.5 17q-18 5 -35.5 8.5t-35.5 6.5l-12 2
l-12 2l-24 4l-24 4v0zM246 452q-49 0 -73.5 -38t-25.5 -84q0 -46 25 -85t74 -39q48 0 72.5 37.5t25.5 82.5v1.5v1.5v1.5v1.5q0 45 -24.5 82.5t-73.5 37.5v0z" />
    <glyph glyph-name="h" unicode="h" horiz-adv-x="564" 
d="M141 736h38v-304q5 2 9.5 4.5t8.5 5.5q35 18 71 33t75 16q7 0 14.5 -0.5t14.5 -2.5q59 -10 81.5 -52.5t22.5 -96.5v-282l17 -16l53 -5v-36h-218v36l47 5l17 16v265q0 58 -26.5 80.5t-64.5 22.5q-13 0 -27.5 -2t-29.5 -6q-16 -5 -33 -11.5t-32 -13.5v-335l18 -16l47 -5
v-36h-218v36l53 5l17 16v612h-77v31l122 36v0z" />
    <glyph glyph-name="i" unicode="i" horiz-adv-x="280" 
d="M151 486h38v-429l17 -16l54 -5v-36h-225v36l53 5l17 16v362h-70v31l116 36v0zM154 708q29 0 43 -17.5t14 -39.5t-14 -40t-43 -18q-28 0 -42 17t-15 37v1.5v1.5v1.5v1.5q1 21 15 38.5t42 16.5v0z" />
    <glyph glyph-name="j" unicode="j" horiz-adv-x="266" 
d="M109 419h-71v31l116 36h38v-402v-1.5v-1.5v-6v-6q0 -70 -12.5 -137t-78.5 -113q-20 -14 -44 -23t-49 -11q-3 -1 -5.5 -1h-5.5h-6.5t-7.5 1q-4 0 -7.5 0.5t-6.5 1.5q-23 4 -34.5 17.5t-11.5 30.5q0 3 0.5 5.5t0.5 5.5q3 13 12.5 24.5t24.5 19.5l96 -60q27 13 37.5 40
t12.5 57q2 14 2 27.5v26.5v2.5v2.5v433v0zM88 651q0 29 17.5 42.5t38.5 13.5q23 0 41.5 -14t18.5 -40v-8.5t-2 -9.5q-5 -21 -20.5 -31t-32.5 -10h-1.5h-1.5q-22 1 -40 15.5t-18 41.5v0z" />
    <glyph glyph-name="k" unicode="k" horiz-adv-x="517" 
d="M26 0v36l53 5l17 16v612h-77v31l122 36h38v-481h19l153 171l-7 14l-45 4v37h190v-37l-64 -8l-137 -145l176 -248l64 -5v-38h-156v33l-135 194h-58v-170l18 -16l47 -5v-36h-218v0z" />
    <glyph glyph-name="l" unicode="l" horiz-adv-x="282" 
d="M28 0v36l59 5l17 16v612h-77v31l122 36h39v-679l17 -16l57 -5v-36h-234v0z" />
    <glyph glyph-name="m" unicode="m" horiz-adv-x="843" 
d="M454 424l14 8l14 8q33 19 69 34.5t73 16.5h3.5h3.5q2 -1 3.5 -1h3.5q64 -6 90.5 -49t26.5 -102v-282l17 -16l53 -5v-36h-218v36l47 5l18 16v265q-1 57 -25.5 79.5t-60.5 22.5q-15 0 -31.5 -3t-33.5 -8q-13 -4 -26 -9.5t-26 -11.5v-335l18 -16l47 -5v-36h-213v36l48 5
l17 16v265q-1 57 -25.5 79.5t-60.5 22.5q-16 0 -33.5 -3.5t-35.5 -9.5q-12 -4 -24 -9t-23 -10v-335l17 -16l48 -5v-36h-219v36l54 5l17 16v362h-71v31l116 36h38v-54q3 2 6.5 4t6.5 3q20 11 41 21.5t42 17.5q17 6 33.5 9.5t32.5 3.5q31 0 58.5 -15t49.5 -52v0z" />
    <glyph glyph-name="n" unicode="n" horiz-adv-x="568" 
d="M30 0v36l54 5l17 16v362h-71v31l116 36h38v-54q5 2 9.5 4.5t8.5 5.5q34 18 70.5 33t75.5 16q7 0 14.5 -0.5t14.5 -2.5q59 -10 81 -52.5t22 -96.5v-282l17 -16l54 -5v-36h-219v36l48 5l17 16v265q0 58 -26.5 80.5t-64.5 22.5q-13 0 -27.5 -2t-29.5 -6q-16 -5 -33 -11.5
t-32 -13.5v-335l17 -16l48 -5v-36h-219v0z" />
    <glyph glyph-name="o" unicode="o" horiz-adv-x="539" 
d="M269 491q115 0 173 -77t59 -169v-1.5v-1.5q0 -94 -58 -171.5t-174 -77.5q-115 0 -173 77t-58 171t58 171.5t173 78.5v0zM269 447q-70 0 -104.5 -64.5t-35.5 -141.5v-1.5v-1.5q1 -76 36 -140t104 -64q70 0 104.5 64.5t34.5 141.5v1.5v1.5q0 76 -35 140t-104 64v0z" />
    <glyph glyph-name="p" unicode="p" horiz-adv-x="551" 
d="M23 -217v36l54 5l16 16v579h-70v31l116 36h38v-55q33 23 68.5 41t78.5 19q88 0 136.5 -66.5t54.5 -146.5q1 -5 1 -10.5v-10.5q0 -85 -45 -158t-131 -94q-9 -2 -17.5 -3.5t-16.5 -1.5q-8 -1 -16.5 -1.5t-17.5 -0.5q-24 0 -48 2t-47 6v-166l17 -16l64 -5v-36h-235v0z
M177 58q21 -7 42 -11.5t43 -4.5q9 0 18 1t18 3q60 12 91 61t37 105q1 8 1.5 15.5t0.5 14.5v5.5v4.5q-2 85 -41 129.5t-99 45.5q-25 0 -53.5 -8t-57.5 -25v-336v0z" />
    <glyph glyph-name="q" unicode="q" horiz-adv-x="531" 
d="M459 475q0 -5 -0.5 -10t-0.5 -11q0 -2 -0.5 -4.5t-0.5 -5.5q0 -8 -0.5 -15.5t-0.5 -15.5v-2.5v-2.5v-3v-3v-562l17 -16l53 -5v-36h-234v36l63 5l17 16v193q-34 -15 -69 -24.5t-71 -9.5h-11.5t-10.5 1q-5 0 -10.5 0.5t-11.5 1.5q-74 16 -110 77t-40 132q-1 5 -1 10v10
q0 17 2 34t5 33q18 86 86.5 136.5t153.5 56.5q3 0 6.5 0.5t7.5 0.5h7.5h6.5q25 0 49.5 -2.5t48.5 -6.5q12 -1 24.5 -3.5t24.5 -4.5v0zM372 438q-19 5 -38.5 8t-39.5 3q-18 0 -35.5 -3.5t-34.5 -11.5q-49 -23 -71 -69.5t-25 -97.5q-1 -5 -1 -10.5v-11.5v-2.5v-2.5v-2.5v-2.5
v-9.5t1 -9.5q4 -51 26.5 -95.5t74.5 -62.5q13 -4 25.5 -6t25.5 -2q23 0 46.5 4.5t45.5 10.5v373v0z" />
    <glyph glyph-name="r" unicode="r" horiz-adv-x="382" 
d="M30 0v36l53 5l17 16v362h-70v31l116 36h38v-94q26 26 52.5 50t54.5 47q6 1 11.5 1h9.5q7 0 14 -0.5t13 -1.5q9 -2 18 -4.5t19 -5.5v-86h-32q-12 13 -24 18t-25 5h-4h-4q-23 -3 -44.5 -18.5t-39.5 -33.5l-10 -10t-9 -10v-286l17 -16l70 -5v-36h-241v0z" />
    <glyph glyph-name="s" unicode="s" horiz-adv-x="401" 
d="M344 469v-113h-49l-8 71q-12 6 -27.5 11.5t-32.5 7.5q-5 1 -10.5 1.5t-10.5 0.5q-22 0 -40.5 -8.5t-29.5 -31.5q-4 -8 -5.5 -15.5t-1.5 -15.5q-1 -32 26 -54t59 -38q15 -7 30 -13.5t27 -12.5q40 -19 63.5 -45.5t24.5 -72.5q0 -39 -17 -71t-51 -52q-25 -15 -57 -21t-65 -6
q-34 -1 -66.5 5t-60.5 16v130h48l12 -85q14 -7 31.5 -12.5t34.5 -7.5q6 -1 12 -1.5t12 -0.5q32 0 58 15t30 55q0 2 0.5 3t0.5 3v2.5v2.5q0 37 -30.5 59.5t-67.5 38.5q-9 4 -18.5 8t-17.5 8q-10 4 -19.5 8.5t-16.5 9.5q-29 19 -44 45.5t-17 54.5v4v4q-1 35 18.5 66.5
t57.5 50.5q22 10 46.5 14.5t49.5 4.5h6.5h6.5q29 -1 57 -7.5t52 -15.5v0z" />
    <glyph glyph-name="t" unicode="t" horiz-adv-x="334" 
d="M88 421h-63v31l65 29l45 93h36v-106h152v-47h-152v-264q0 -62 18.5 -86t61.5 -24q14 0 32 2.5t40 6.5v-37q-31 -10 -63 -15t-64 -5h-4.5h-4.5h-8t-8 1q-18 0 -35 6t-31 19q-12 12 -14.5 27.5t-2.5 31.5v3.5v3.5v3.5v3.5v323v0z" />
    <glyph glyph-name="u" unicode="u" horiz-adv-x="569" 
d="M142 491h38v-331q0 -59 27.5 -82t67.5 -23q13 0 26.5 1.5t27.5 4.5q16 4 32.5 10t31.5 13v339h-70v31l115 37h38v-434l18 -16l47 -5v-36h-148v56q-36 -25 -76.5 -44t-84.5 -20h-3.5h-3.5q-2 1 -3.5 1h-3.5q-67 4 -94 46.5t-27 103.5v280h-71v31l116 37v0z" />
    <glyph glyph-name="v" unicode="v" horiz-adv-x="494" 
d="M-4 481h216v-37l-53 -4l-12 -16l117 -327l128 327l-8 16l-54 4v37h177v-37l-59 -8l-175 -436h-56l-161 438l-60 6v37v0z" />
    <glyph glyph-name="w" unicode="w" horiz-adv-x="771" 
d="M-1 481h216v-37l-53 -4l-12 -16l91 -325l134 382h61l118 -382l102 325l-8 16l-54 4v37h177v-37l-56 -8l-142 -436h-63l-121 379l-135 -379h-62l-133 438l-60 6v37v0z" />
    <glyph glyph-name="x" unicode="x" horiz-adv-x="503" 
d="M18 481h215v-37l-46 -6l-5 -11l84 -130l91 128l-8 13l-48 6v37h180v-37l-56 -10l-132 -175l147 -214l60 -8v-37h-213v37l42 7l5 8l-93 149l-102 -145l5 -12l57 -7v-37h-189v37l57 8l144 193l-134 195l-61 11v37v0z" />
    <glyph glyph-name="y" unicode="y" horiz-adv-x="495" 
d="M0 481h216v-37l-53 -4l-12 -16l120 -311l125 311l-8 16l-54 4v37h178v-37l-58 -8l-200 -485q-6 -12 -13 -27.5t-15 -31.5q-22 -40 -54 -74t-76 -34q-7 0 -14.5 1t-15.5 3q-22 7 -31.5 20t-9.5 29q0 5 1 10l2 10q3 10 9 19.5t14 17.5l95 -39q24 27 41 58t30 63
q3 7 5.5 14.5t5.5 13.5l-168 434l-60 6v37v0z" />
    <glyph glyph-name="z" unicode="z" horiz-adv-x="468" 
d="M45 0v50l268 385h-186l-14 -16l-11 -77h-47v139h361v-38l-277 -397h215l15 16l11 84h51v-146h-386v0z" />
    <glyph glyph-name="braceleft" unicode="{" horiz-adv-x="401" 
d="M344 469v-113h-49l-8 71q-12 6 -27.5 11.5t-32.5 7.5q-5 1 -10.5 1.5t-10.5 0.5q-22 0 -40.5 -8.5t-29.5 -31.5q-4 -8 -5.5 -15.5t-1.5 -15.5q-1 -32 26 -54t59 -38q15 -7 30 -13.5t27 -12.5q40 -19 63.5 -45.5t24.5 -72.5q0 -39 -17 -71t-51 -52q-25 -15 -57 -21t-65 -6
q-34 -1 -66.5 5t-60.5 16v130h48l12 -85q14 -7 31.5 -12.5t34.5 -7.5q6 -1 12 -1.5t12 -0.5q32 0 58 15t30 55q0 2 0.5 3t0.5 3v2.5v2.5q0 37 -30.5 59.5t-67.5 38.5q-9 4 -18.5 8t-17.5 8q-10 4 -19.5 8.5t-16.5 9.5q-29 19 -44 45.5t-17 54.5v4v4q-1 35 18.5 66.5
t57.5 50.5q22 10 46.5 14.5t49.5 4.5h6.5h6.5q29 -1 57 -7.5t52 -15.5v0zM59 736h55l87 -141l88 141h54l-110 -190h-64l-110 190v0z" />
    <glyph glyph-name="bar" unicode="|" horiz-adv-x="565" 
d="M383 568h-141v47h141v54h-77v31l122 36h38v-121h64v-47h-64v-511l17 -16l48 -5v-36h-148v52q-44 -32 -83.5 -46.5t-74.5 -14.5q-88 0 -137.5 74t-50.5 165v5.5v5.5q4 94 65.5 171.5t193.5 77.5q20 0 42 -2t45 -7v87v0zM383 89v343q-22 7 -44 11.5t-45 4.5q-9 0 -18 -1
t-18 -3q-64 -14 -96 -66t-37 -112q-1 -6 -1 -11.5v-11.5v-5.5v-4.5q2 -87 43.5 -132t102.5 -45q26 0 55 8.5t58 24.5v0z" />
    <glyph glyph-name="braceright" unicode="}" horiz-adv-x="446" 
d="M425 42q-47 -26 -89 -37.5t-79 -11.5q-106 0 -162.5 77.5t-57.5 171.5v1.5v1.5q0 80 43.5 150t133.5 89q20 5 37.5 6.5t33.5 1.5q62 0 95 -24t40 -53q2 -5 2.5 -10t0.5 -10q0 -22 -13.5 -39t-37.5 -17q-10 0 -22.5 4t-26.5 12v82q-8 5 -16.5 8t-17.5 4q-4 1 -8.5 1.5
t-8.5 0.5q-16 0 -31.5 -4.5t-29.5 -12.5q-38 -22 -57 -62.5t-23 -84.5q-1 -9 -1.5 -17.5t-0.5 -16.5v-16t1 -16q6 -86 52.5 -127t109.5 -41q16 0 33 2.5t34 7.5q16 6 33 13.5t33 17.5v-52v0zM309 736h99l-146 -190h-50l97 190v0z" />
    <glyph glyph-name="asciitilde" unicode="~" horiz-adv-x="446" 
d="M425 42q-47 -26 -89 -37.5t-79 -11.5q-106 0 -162.5 77.5t-57.5 171.5v1.5v1.5q0 80 43.5 150t133.5 89q20 5 37.5 6.5t33.5 1.5q62 0 95 -24t40 -53q2 -5 2.5 -10t0.5 -10q0 -22 -13.5 -39t-37.5 -17q-10 0 -22.5 4t-26.5 12v82q-8 5 -16.5 8t-17.5 4q-4 1 -8.5 1.5
t-8.5 0.5q-16 0 -31.5 -4.5t-29.5 -12.5q-38 -22 -57 -62.5t-23 -84.5q-1 -9 -1.5 -17.5t-0.5 -16.5v-16t1 -16q6 -86 52.5 -127t109.5 -41q16 0 33 2.5t34 7.5q16 6 33 13.5t33 17.5v-52v0zM108 736h55l87 -141l88 141h54l-110 -190h-64l-110 190v0z" />
    <glyph glyph-name="glyph98" unicode="&#xa1;" horiz-adv-x="338" 
d="M145 503h48l28 -382q0 -4 0.5 -9t1.5 -10q0 -6 1 -12.5t1 -13.5v-4v-4q0 -24 -7.5 -45t-30.5 -27q-4 -2 -8.5 -2.5t-8.5 -0.5q-15 0 -28 6t-20 19q-4 8 -6 17t-3 18v6v6v7.5v6.5q1 11 2 21.5t2 20.5l28 382v0zM169 683q26 -1 40.5 -18t15.5 -37v-1.5v-1.5
q0 -19 -11.5 -36t-36.5 -20h-2h-2q-1 -1 -2 -1h-2q-26 0 -40 17.5t-15 38.5v1.5v1.5q0 21 13.5 38.5t41.5 17.5v0z" />
    <glyph glyph-name="cent" unicode="&#xa2;" horiz-adv-x="556" 
d="M273 601h45v-98q24 0 46.5 -2.5t45.5 -6.5q13 -3 26.5 -6.5t27.5 -7.5v-147h-45l-16 104q-6 3 -12 5.5t-12 4.5q-14 5 -29 7.5t-32 2.5v-411q17 1 33 3.5t31 7.5q5 2 10.5 4t10.5 4l14 109h47v-152q-7 -2 -14.5 -4.5t-14.5 -3.5q-28 -7 -57 -10t-60 -3v-98h-45v100
q-96 14 -153 81t-56 167q2 103 57 166.5t152 82.5v101v0zM273 454q-62 -19 -90.5 -72.5t-31.5 -115.5v-4.5v-4.5q-1 -3 -1 -5.5v-4.5q0 -64 29.5 -120.5t93.5 -78.5v406v0z" />
    <glyph glyph-name="sterling" unicode="&#xa3;" horiz-adv-x="556" 
d="M417 531v94q-13 4 -26 6t-27 2q-30 0 -57 -11t-45 -37q-16 -23 -22.5 -57t-8.5 -70q-1 -20 -0.5 -39.5t0.5 -37.5v-15v-14h188v-47h-188q0 -67 -20 -129.5t-80 -101.5l2 -3q4 0 8 0.5t9 1.5q12 1 25 2t26 1h305v-76h-469v57q32 12 58 29t39 50q7 20 10 44t4 50v27v27
v10.5v10.5h-72v47h71v16v17q-1 2 -1 5v6v11v11v10.5v10.5q2 56 16.5 108.5t60.5 88.5q29 23 63 34.5t70 11.5q6 0 12 -0.5t12 -0.5q18 -2 36 -7t35 -13q22 -10 35.5 -26t19.5 -33q1 -5 2 -9.5t1 -9.5q0 -22 -15.5 -38.5t-47.5 -16.5q-7 0 -14 1t-15 2v0z" />
    <glyph glyph-name="Idieresis" unicode="&#xa4;" horiz-adv-x="833" 
d="M186 571l233 -233l232 233l40 -40l-232 -233l232 -232l-40 -40l-232 232l-233 -232l-40 40l233 232l-233 233l40 40v0z" />
    <glyph glyph-name="ae" unicode="&#xa5;" horiz-adv-x="556" 
d="M-5 671h211v-40l-52 -6l-9 -11l140 -274l153 266l-9 14l-55 11v40h185v-40l-55 -13l-110 -192h144v-42h-171l-59 -104h230v-42h-225v-178l16 -14l72 -5v-41h-258v41l70 5l18 14v178h-217v42h216l-53 104h-163v42h136l-99 195l-56 10v40v0z" />
    <glyph glyph-name="brokenbar" unicode="&#xa6;" 
 />
    <glyph glyph-name="section" unicode="&#xa7;" horiz-adv-x="500" 
d="M406 695v-129h-45l-10 80q-17 9 -35 16t-37 11q-7 1 -14.5 2t-14.5 1q-18 0 -35 -5.5t-33 -19.5q-15 -13 -21.5 -27t-6.5 -28q0 -24 17 -46t42 -35q3 -2 6.5 -3.5t6.5 -3.5q14 -7 29.5 -14t31.5 -15q56 -27 103 -66.5t47 -107.5v-0.5v-1.5v-1.5v-0.5q-1 -56 -37 -96
t-85 -61q34 -17 63 -40.5t38 -62.5q1 -4 1.5 -7.5t0.5 -6.5q1 -4 1 -7.5v-7.5v-4v-5q-1 -24 -12.5 -48.5t-30.5 -42.5q-28 -28 -63.5 -39t-73.5 -11q-10 0 -19.5 0.5t-19.5 1.5q-29 4 -57.5 11.5t-53.5 17.5l-2 127h48l14 -89q26 -13 50.5 -19t45.5 -6q47 0 75 24.5t29 56.5
q0 7 -1 13t-4 13q-7 18 -24 35t-45 32q-9 5 -18.5 9.5t-19.5 8.5l-8 4l-8 4q-59 28 -108.5 65.5t-49.5 112.5v2.5v2.5v2.5v2.5q3 60 36 92.5t82 56.5l-4 2t-4 3q-28 15 -52.5 34.5t-34.5 50.5q-1 5 -2.5 10.5t-2.5 11.5q-1 5 -1.5 10.5t-0.5 10.5q0 32 14 60t42 47
q29 20 62 28t68 8q8 0 16 -0.5t16 -1.5q28 -2 56 -8t53 -14v0zM223 424q-37 -18 -62 -46.5t-25 -67.5q0 -8 1 -17t4 -18q11 -36 40 -57.5t61 -37.5q7 -3 13 -6l12 -6q3 -2 6 -3.5t6 -2.5q32 23 57.5 52.5t26.5 69.5v3v3q-1 1 -1 2.5v2.5q-4 45 -36.5 71.5t-70.5 43.5
q-8 4 -16 7.5t-16 6.5v0z" />
    <glyph glyph-name="dieresis" unicode="&#xa8;" horiz-adv-x="10" 
 />
    <glyph glyph-name="copyright" unicode="&#xa9;" horiz-adv-x="901" 
d="M453 726q159 -1 271.5 -115t112.5 -273q0 -157 -114.5 -269.5t-270.5 -112.5q-148 2 -258.5 100t-124.5 246q0 5 -0.5 9t-0.5 9q-1 4 -1 8.5v8.5q0 157 113 273t273 116v0zM453 685q-145 0 -243.5 -104.5t-98.5 -242.5q0 -8 0.5 -16.5t1.5 -16.5q0 -9 1.5 -17.5
t2.5 -16.5q24 -118 119.5 -195.5t215.5 -77.5q140 0 240.5 101.5t100.5 240.5q0 140 -100 242t-240 103v0zM609 127q-39 -13 -74 -19.5t-67 -6.5q-119 0 -182 72.5t-66 159.5v5v4q0 87 61 159t188 72q31 0 66 -5.5t74 -16.5v-120h-43l-15 75q-21 11 -41 16t-40 5
q-67 1 -114.5 -53.5t-47.5 -134.5q0 -6 0.5 -12t0.5 -12q6 -52 35 -97.5t80 -61.5q11 -3 21.5 -4.5t20.5 -1.5q22 -1 43.5 5t43.5 13l13 84h43v-125v0z" />
    <glyph glyph-name="ellipsis" unicode="&#xaa;" horiz-adv-x="380" 
d="M251 375q-28 -17 -58 -30.5t-65 -14.5h-1.5h-1.5q-31 0 -55 16t-34 45q-2 7 -3.5 13.5t-1.5 13.5q0 24 13.5 44.5t36.5 33.5q17 9 41.5 17t49.5 15q22 5 42.5 9.5t36.5 8.5v12.5v13.5v2.5v3.5q0 17 -4.5 33t-21.5 26q-9 5 -19 7.5t-21 2.5h-5.5h-5.5q-13 -1 -25.5 -4.5
t-23.5 -7.5v-58h-7h-8q-4 -1 -8 -1h-8h-2.5h-2.5q-12 0 -22.5 1.5t-13.5 6.5q-2 4 -3 7.5t-1 7.5v2.5v2.5q1 11 8.5 21.5t16.5 17.5q2 2 4.5 4t4.5 3q20 12 43 18.5t48 8.5q5 1 10.5 1h10.5q10 0 19.5 -0.5t18.5 -1.5q45 -6 62.5 -33t18.5 -66v-203l12 -11l40 -4v-25h-106
l-9 41v0zM251 398v123q-13 -3 -29.5 -7t-34.5 -10q-34 -11 -62 -29t-28 -49v-6t1 -6q5 -26 20 -36t35 -11q9 0 18.5 1.5t18.5 4.5q11 3 22 7.5t20 8.5q5 2 10 4.5l9 4.5v0z" />
    <glyph glyph-name="ydieresis" unicode="&#xab;" horiz-adv-x="442" 
d="M203 413v-66l-117 -107l117 -108v-65l-164 133v80l164 133v0zM401 413v-66l-118 -107l118 -108v-65l-164 133v80l164 133v0z" />
    <glyph glyph-name="emdash" unicode="&#xac;" 
 />
    <glyph glyph-name="uni00AD" unicode="&#xad;" horiz-adv-x="500" 
d="M151 597h198v-597h-198v597v0z" />
    <glyph glyph-name="registered" unicode="&#xae;" horiz-adv-x="901" 
d="M453 726q159 -1 271.5 -115t112.5 -273q0 -157 -114.5 -269.5t-270.5 -112.5q-148 2 -258.5 100t-124.5 246q0 5 -0.5 9t-0.5 9q-1 4 -1 8.5v8.5q0 157 113 273t273 116v0zM453 685q-145 0 -243.5 -104.5t-98.5 -242.5q0 -8 0.5 -16.5t1.5 -16.5q0 -9 1.5 -17.5
t2.5 -16.5q24 -118 119.5 -195.5t215.5 -77.5q140 0 240.5 101.5t100.5 240.5q0 140 -100 242t-240 103v0zM254 560h211h2h2h15h14q24 -1 46 -6t41 -19q19 -15 30 -36.5t12 -45.5v-1.5v-0.5q0 -44 -30.5 -68.5t-66.5 -37.5q-6 -2 -12 -3.5t-12 -3.5q49 -12 67.5 -35.5
t27.5 -49.5q1 -3 2 -7t2 -7q10 -31 28 -54t78 -25v-36q-18 -4 -33.5 -5.5t-29.5 -1.5q-51 0 -78 29t-49 97q-18 54 -49 63t-78 9h-3.5h-3.5v-150l63 -7v-37h-191v36l53 7v352l-58 10v34v0zM387 355h4.5h4.5h20.5t21.5 1q31 2 59.5 13.5t38.5 45.5q2 5 2.5 10.5t0.5 10.5v4v4
q-2 14 -8 27t-17 23q-19 18 -44.5 23t-51.5 6h-8h-7q-4 -1 -8 -1h-8v-167v0z" />
    <glyph glyph-name="glyph263" unicode="&#xaf;" 
 />
    <glyph glyph-name="glyph264" unicode="&#xb0;" 
 />
    <glyph glyph-name="mu" unicode="&#xb1;" 
 />
    <glyph glyph-name="uni00B2" unicode="&#xb2;" 
 />
    <glyph glyph-name="uni00B3" unicode="&#xb3;" 
 />
    <glyph glyph-name="acute" unicode="&#xb4;" horiz-adv-x="0" 
 />
    <glyph glyph-name="oslash" unicode="&#xb5;" 
 />
    <glyph glyph-name="paragraph" unicode="&#xb6;" horiz-adv-x="484" 
d="M458 671v-36l-62 -10v-703h-49v708h-76v-349q-13 0 -26.5 0.5t-26.5 1.5q-40 3 -78 14t-67 41q-26 27 -36.5 62t-10.5 72q0 12 1 24t2 23q14 95 82 123.5t151 28.5h196v0z" />
    <glyph glyph-name="glyph265" unicode="&#xb7;" 
 />
    <glyph glyph-name="glyph121" unicode="&#xb8;" horiz-adv-x="7870" 
 />
    <glyph glyph-name="uni00B9" unicode="&#xb9;" 
 />
    <glyph glyph-name="Agrave" unicode="&#xba;" horiz-adv-x="405" 
d="M202 677q87 0 130.5 -54.5t43.5 -119.5v-1.5v-1.5q-1 -64 -44.5 -118t-129.5 -54t-129.5 54.5t-44.5 119.5q0 66 43.5 120.5t130.5 54.5v0zM202 647q-52 0 -78 -45t-27 -99v-1.5v-1.5q1 -53 27 -97.5t78 -44.5t78 45t26 99v1.5v1.5q0 53 -26 97.5t-78 44.5v0z" />
    <glyph glyph-name="Ydieresis" unicode="&#xbb;" horiz-adv-x="442" 
d="M46 413l163 -133v-80l-163 -133v65l117 108l-117 107v66v0zM243 413l164 -133v-80l-164 -133v65l117 108l-117 107v66v0z" />
    <glyph glyph-name="onequarter" unicode="&#xbc;" 
 />
    <glyph glyph-name="glyph243" unicode="&#xbd;" horiz-adv-x="0" 
 />
    <glyph glyph-name="threequarters" unicode="&#xbe;" 
 />
    <glyph glyph-name="oe" unicode="&#xbf;" horiz-adv-x="486" 
d="M243 503h52v-146q-62 -27 -103.5 -67.5t-41.5 -105.5q0 -10 1 -22t4 -24q11 -55 50 -77.5t90 -23.5l41 99h5.5h4.5q35 1 52.5 -14.5t17.5 -36.5q0 -5 -1 -10.5t-3 -11.5q-10 -24 -41 -44.5t-82 -24.5q-3 0 -6.5 -0.5t-6.5 -0.5h-6.5h-6.5q-77 0 -138.5 43.5t-64.5 128.5
v2v2v1v2q0 86 56.5 133.5t126.5 80.5v117v0zM269 683q26 -1 40.5 -18t15.5 -37v-1.5v-1.5q0 -19 -11.5 -36t-36.5 -20h-2h-2q-1 -1 -2 -1h-2q-26 0 -40 17.5t-15 38.5v1.5v1.5q0 21 13.5 38.5t41.5 17.5v0z" />
    <glyph glyph-name="currency" unicode="&#xc0;" horiz-adv-x="639" 
d="M284 679h66l240 -626l61 -12v-41h-228v41l62 5l7 14l-72 191h-236l-71 -191l10 -14l65 -5v-41h-195v41l57 12l234 626v0zM300 574l-99 -277h202l-103 277v0zM173 932h99l97 -190h-50l-146 190v0z" />
    <glyph glyph-name="breve" unicode="&#xc1;" horiz-adv-x="639" 
d="M284 679h66l240 -626l61 -12v-41h-228v41l62 5l7 14l-72 191h-236l-71 -191l10 -14l65 -5v-41h-195v41l57 12l234 626v0zM300 574l-99 -277h202l-103 277v0zM378 932h99l-146 -190h-50l97 190v0z" />
    <glyph glyph-name="tilde" unicode="&#xc2;" horiz-adv-x="639" 
d="M284 679h66l240 -626l61 -12v-41h-228v41l62 5l7 14l-72 191h-236l-71 -191l10 -14l65 -5v-41h-195v41l57 12l234 626v0zM300 574l-99 -277h202l-103 277v0zM287 932h64l110 -190h-54l-88 141l-87 -141h-55l110 190v0z" />
    <glyph glyph-name="guilsinglleft" unicode="&#xc3;" horiz-adv-x="639" 
d="M284 679h66l240 -626l61 -12v-41h-228v41l62 5l7 14l-72 191h-236l-71 -191l10 -14l65 -5v-41h-195v41l57 12l234 626v0zM300 574l-99 -277h202l-103 277v0zM430 904h41v-2v-1v-2v-2q0 -53 -22.5 -82.5t-62.5 -29.5q-14 0 -30 4t-33 11q-6 3 -13.5 6.5t-15.5 7.5
q-4 2 -7.5 4t-6.5 3q-11 5 -21 8.5t-19 3.5q-13 0 -22.5 -10.5t-9.5 -38.5v-4t1 -3v-4v-4h-43q1 53 20.5 86.5t58.5 34.5q14 0 29.5 -4.5t32.5 -12.5q2 -1 4.5 -2t4.5 -2q3 -2 6 -3.5t6 -3.5q19 -9 36.5 -17t30.5 -8q16 0 25.5 14.5t9.5 52.5v0z" />
    <glyph glyph-name="Adieresis" unicode="&#xc4;" horiz-adv-x="639" 
d="M284 679h66l240 -626l61 -12v-41h-228v41l62 5l7 14l-72 191h-236l-71 -191l10 -14l65 -5v-41h-195v41l57 12l234 626v0zM300 574l-99 -277h202l-103 277v0zM412 887q24 -1 36.5 -16.5t12.5 -35.5q0 -17 -10 -31.5t-33 -17.5h-2h-2q-1 -1 -2 -1h-2q-23 0 -35 15t-13 33
v1.5v1.5q0 20 12.5 35.5t37.5 15.5v0zM226 887q24 -1 36.5 -16.5t12.5 -35.5q0 -17 -10 -31.5t-33 -17.5h-2h-1h-2h-2q-23 0 -35.5 15.5t-12.5 34.5v1.5v1.5q1 18 12.5 33t36.5 15v0z" />
    <glyph glyph-name="Aring" unicode="&#xc5;" horiz-adv-x="639" 
d="M284 679h66l240 -626l61 -12v-41h-228v41l62 5l7 14l-72 191h-236l-71 -191l10 -14l65 -5v-41h-195v41l57 12l234 626v0zM300 574l-99 -277h202l-103 277v0zM307 963q54 -1 84.5 -37.5t31.5 -79.5v-1.5v-1.5q0 -32 -17 -61.5t-54 -44.5q-10 -4 -21.5 -6.5t-22.5 -2.5
q-40 0 -74.5 26t-42.5 68q0 3 -0.5 5.5t-0.5 5.5q-1 3 -1 5.5v5.5q0 47 34.5 83t83.5 36v0zM307 919q-36 0 -53.5 -22t-17.5 -49v-1.5v-1.5q0 -27 18 -49.5t50 -23.5h4t5 1q2 0 4 0.5t4 0.5q29 6 43 26.5t15 43.5q0 28 -18.5 51t-53.5 24v0z" />
    <glyph glyph-name="Oslash" unicode="&#xc6;" horiz-adv-x="866" 
d="M283 671h518v-146h-55l-14 85l-14 15h-206v-253h138l15 14l10 73h46v-220h-46l-10 72l-15 15h-138v-280h242l15 17l16 100h53v-163h-486v41l57 5l17 14v191h-233l-120 -191l5 -14l64 -5v-41h-197v41l56 9l349 561l-9 14l-58 6v40v0zM426 627l-207 -329h207v329v0z" />
    <glyph glyph-name="Ccedilla" unicode="&#xc7;" horiz-adv-x="632" 
d="M353 0h36v-60q4 2 7.5 2h7.5q34 0 58 -17.5t24 -51.5v-4v-4q-1 -4 -1.5 -8t-1.5 -8q-9 -34 -36.5 -49.5t-59.5 -19.5q-3 0 -5.5 -0.5t-4.5 -0.5h-4.5h-5.5q-17 0 -34.5 3t-34.5 7v35q2 0 4 -0.5t5 -0.5q8 -2 17.5 -3.5t19.5 -2.5q3 -1 7 -1h7q20 0 36.5 5.5t24.5 21.5
q3 6 4.5 10.5t1.5 9.5q1 16 -14 23.5t-33 9.5h-5.5h-5.5h-4t-3 -1h-3.5h-3.5v105v0zM588 23q-47 -16 -97 -24.5t-100 -8.5h-7.5h-7.5q-147 3 -239 101.5t-94 244.5q-2 150 95 248t246 99q52 1 103 -9.5t101 -24.5v-154h-56l-15 91l-13 18q-31 14 -61 20.5t-59 6.5
q-105 0 -171.5 -81.5t-66.5 -210.5q0 -136 70 -216.5t185 -81.5q22 0 45 3t48 10l16 16l24 111h54v-158v0z" />
    <glyph glyph-name="ring" unicode="&#xc8;" horiz-adv-x="576" 
d="M33 0v41l57 5l17 14v551l-17 14l-57 6v40h479v-146h-56l-14 85l-14 15h-231v-253h164l14 14l10 73h47v-220h-47l-10 72l-14 15h-164v-280h268l14 17l17 100h52v-163h-515v0zM142 932h99l97 -190h-50l-146 190v0z" />
    <glyph glyph-name="Eacute" unicode="&#xc9;" horiz-adv-x="576" 
d="M33 0v41l57 5l17 14v551l-17 14l-57 6v40h479v-146h-56l-14 85l-14 15h-231v-253h164l14 14l10 73h47v-220h-47l-10 72l-14 15h-164v-280h268l14 17l17 100h52v-163h-515v0zM347 932h99l-146 -190h-50l97 190v0z" />
    <glyph glyph-name="macron" unicode="&#xca;" horiz-adv-x="576" 
d="M33 0v41l57 5l17 14v551l-17 14l-57 6v40h479v-146h-56l-14 85l-14 15h-231v-253h164l14 14l10 73h47v-220h-47l-10 72l-14 15h-164v-280h268l14 17l17 100h52v-163h-515v0zM256 932h64l110 -190h-54l-88 141l-87 -141h-55l110 190v0z" />
    <glyph glyph-name="dotaccent" unicode="&#xcb;" horiz-adv-x="576" 
d="M33 0v41l57 5l17 14v551l-17 14l-57 6v40h479v-146h-56l-14 85l-14 15h-231v-253h164l14 14l10 73h47v-220h-47l-10 72l-14 15h-164v-280h268l14 17l17 100h52v-163h-515v0zM381 887q24 -1 36.5 -16.5t12.5 -35.5q0 -17 -10 -31.5t-33 -17.5h-2h-2q-1 -1 -2 -1h-2
q-23 0 -35 15t-13 33v1.5v1.5q0 20 12.5 35.5t37.5 15.5v0zM195 887q24 -1 36.5 -16.5t12.5 -35.5q0 -17 -10 -31.5t-33 -17.5h-2h-1h-2h-2q-23 0 -35.5 15.5t-12.5 34.5v1.5v1.5q1 18 12.5 33t36.5 15v0z" />
    <glyph glyph-name="caron" unicode="&#xcc;" horiz-adv-x="324" 
d="M35 0v41l64 5l16 14v551l-16 14l-64 6v40h254v-40l-64 -6l-17 -14v-551l17 -14l64 -5v-41h-254v0zM16 932h99l97 -190h-50l-146 190v0z" />
    <glyph glyph-name="cedilla" unicode="&#xcd;" horiz-adv-x="324" 
d="M35 0v41l64 5l16 14v551l-16 14l-64 6v40h254v-40l-64 -6l-17 -14v-551l17 -14l64 -5v-41h-254v0zM221 932h99l-146 -190h-50l97 190v0z" />
    <glyph glyph-name="hungarumlaut" unicode="&#xce;" horiz-adv-x="324" 
d="M35 0v41l64 5l16 14v551l-16 14l-64 6v40h254v-40l-64 -6l-17 -14v-551l17 -14l64 -5v-41h-254v0zM130 932h64l110 -190h-54l-88 141l-87 -141h-55l110 190v0z" />
    <glyph glyph-name="ogonek" unicode="&#xcf;" horiz-adv-x="324" 
d="M35 0v41l64 5l16 14v551l-16 14l-64 6v40h254v-40l-64 -6l-17 -14v-551l17 -14l64 -5v-41h-254v0zM255 887q24 -1 36.5 -16.5t12.5 -35.5q0 -17 -10 -31.5t-33 -17.5h-2h-2q-1 -1 -2 -1h-2q-23 0 -35 15t-13 33v1.5v1.5q0 20 12.5 35.5t37.5 15.5v0zM69 887
q24 -1 36.5 -16.5t12.5 -35.5q0 -17 -10 -31.5t-33 -17.5h-2h-1h-2h-2q-23 0 -35.5 15.5t-12.5 34.5v1.5v1.5q1 18 12.5 33t36.5 15v0z" />
    <glyph glyph-name="glyph232" unicode="&#xd0;" horiz-adv-x="6478" 
 />
    <glyph glyph-name="Ntilde" unicode="&#xd1;" horiz-adv-x="713" 
d="M29 0v41l61 8l18 19v543l-18 14l-64 6v40h188v-25l341 -512v470l-18 18l-60 9v40h211v-40l-61 -9l-18 -18v-604h-66l-381 568v-500l18 -19l60 -8v-41h-211v0zM467 904h41v-2v-1v-2v-2q0 -53 -22.5 -82.5t-62.5 -29.5q-14 0 -30 4t-33 11q-6 3 -13.5 6.5t-15.5 7.5
q-4 2 -7.5 4t-6.5 3q-11 5 -21 8.5t-19 3.5q-13 0 -22.5 -10.5t-9.5 -38.5v-4t1 -3v-4v-4h-43q1 53 20.5 86.5t58.5 34.5q14 0 29.5 -4.5t32.5 -12.5q2 -1 4.5 -2t4.5 -2q3 -2 6 -3.5t6 -3.5q19 -9 36.5 -17t30.5 -8q16 0 25.5 14.5t9.5 52.5v0z" />
    <glyph glyph-name="scaron" unicode="&#xd2;" horiz-adv-x="731" 
d="M366 688q157 -1 239.5 -111t83.5 -242v-1.5v-1.5q0 -112 -59.5 -210t-183.5 -127q-21 -5 -41 -7.5t-40 -2.5q-124 -1 -213.5 82.5t-105.5 213.5q-1 6 -1.5 12.5t-0.5 13.5q-1 7 -1 13.5v12.5q-1 140 85 247.5t238 107.5v0zM366 634q-111 0 -166 -92.5t-56 -203.5v-1.5
v-1.5q1 -112 56.5 -205t165.5 -93q103 0 153.5 75t61.5 166q1 14 2 28.5t1 28.5t-1 29t-3 30q-11 90 -61.5 165t-152.5 75v0zM219 932h99l97 -190h-50l-146 190v0z" />
    <glyph glyph-name="Lslash" unicode="&#xd3;" horiz-adv-x="731" 
d="M366 688q157 -1 239.5 -111t83.5 -242v-1.5v-1.5q0 -112 -59.5 -210t-183.5 -127q-21 -5 -41 -7.5t-40 -2.5q-124 -1 -213.5 82.5t-105.5 213.5q-1 6 -1.5 12.5t-0.5 13.5q-1 7 -1 13.5v12.5q-1 140 85 247.5t238 107.5v0zM366 634q-111 0 -166 -92.5t-56 -203.5v-1.5
v-1.5q1 -112 56.5 -205t165.5 -93q103 0 153.5 75t61.5 166q1 14 2 28.5t1 28.5t-1 29t-3 30q-11 90 -61.5 165t-152.5 75v0zM424 932h99l-146 -190h-50l97 190v0z" />
    <glyph glyph-name="lslash" unicode="&#xd4;" horiz-adv-x="731" 
d="M366 688q157 -1 239.5 -111t83.5 -242v-1.5v-1.5q0 -112 -59.5 -210t-183.5 -127q-21 -5 -41 -7.5t-40 -2.5q-124 -1 -213.5 82.5t-105.5 213.5q-1 6 -1.5 12.5t-0.5 13.5q-1 7 -1 13.5v12.5q-1 140 85 247.5t238 107.5v0zM366 634q-111 0 -166 -92.5t-56 -203.5v-1.5
v-1.5q1 -112 56.5 -205t165.5 -93q103 0 153.5 75t61.5 166q1 14 2 28.5t1 28.5t-1 29t-3 30q-11 90 -61.5 165t-152.5 75v0zM333 932h64l110 -190h-54l-88 141l-87 -141h-55l110 190v0z" />
    <glyph glyph-name="guilsinglright" unicode="&#xd5;" horiz-adv-x="731" 
d="M366 688q157 -1 239.5 -111t83.5 -242v-1.5v-1.5q0 -112 -59.5 -210t-183.5 -127q-21 -5 -41 -7.5t-40 -2.5q-124 -1 -213.5 82.5t-105.5 213.5q-1 6 -1.5 12.5t-0.5 13.5q-1 7 -1 13.5v12.5q-1 140 85 247.5t238 107.5v0zM366 634q-111 0 -166 -92.5t-56 -203.5v-1.5
v-1.5q1 -112 56.5 -205t165.5 -93q103 0 153.5 75t61.5 166q1 14 2 28.5t1 28.5t-1 29t-3 30q-11 90 -61.5 165t-152.5 75v0zM476 904h41v-2v-1v-2v-2q0 -53 -22.5 -82.5t-62.5 -29.5q-14 0 -30 4t-33 11q-6 3 -13.5 6.5t-15.5 7.5q-4 2 -7.5 4t-6.5 3q-11 5 -21 8.5
t-19 3.5q-13 0 -22.5 -10.5t-9.5 -38.5v-4t1 -3v-4v-4h-43q1 53 20.5 86.5t58.5 34.5q14 0 29.5 -4.5t32.5 -12.5q2 -1 4.5 -2t4.5 -2q3 -2 6 -3.5t6 -3.5q19 -9 36.5 -17t30.5 -8q16 0 25.5 14.5t9.5 52.5v0z" />
    <glyph glyph-name="Odieresis" unicode="&#xd6;" horiz-adv-x="731" 
d="M366 688q157 -1 239.5 -111t83.5 -242v-1.5v-1.5q0 -112 -59.5 -210t-183.5 -127q-21 -5 -41 -7.5t-40 -2.5q-124 -1 -213.5 82.5t-105.5 213.5q-1 6 -1.5 12.5t-0.5 13.5q-1 7 -1 13.5v12.5q-1 140 85 247.5t238 107.5v0zM366 634q-111 0 -166 -92.5t-56 -203.5v-1.5
v-1.5q1 -112 56.5 -205t165.5 -93q103 0 153.5 75t61.5 166q1 14 2 28.5t1 28.5t-1 29t-3 30q-11 90 -61.5 165t-152.5 75v0zM458 887q24 -1 36.5 -16.5t12.5 -35.5q0 -17 -10 -31.5t-33 -17.5h-2h-2q-1 -1 -2 -1h-2q-23 0 -35 15t-13 33v1.5v1.5q0 20 12.5 35.5t37.5 15.5
v0zM272 887q24 -1 36.5 -16.5t12.5 -35.5q0 -17 -10 -31.5t-33 -17.5h-2h-1h-2h-2q-23 0 -35.5 15.5t-12.5 34.5v1.5v1.5q1 18 12.5 33t36.5 15v0z" />
    <glyph glyph-name="multiply" unicode="&#xd7;" 
 />
    <glyph glyph-name="plusminus" unicode="&#xd8;" horiz-adv-x="731" 
d="M578 748l41 -24l-61 -100q48 -43 80 -91t43 -113q4 -20 6 -41t2 -42v-6v-7q-2 -59 -20 -117t-55 -105q-45 -57 -111 -86.5t-138 -29.5q-40 -1 -76 8t-71 25q-5 2 -9.5 4.5t-8.5 4.5l-62 -104l-39 27l63 105q-28 26 -50.5 55t-37.5 64q-14 32 -22 67.5t-9 71.5q-1 6 -1 11
v10v7.5v7.5q2 49 14.5 96.5t36.5 87.5q43 73 116 113.5t157 40.5q35 0 68 -7.5t65 -19.5q5 -2 10.5 -4.5t10.5 -4.5l58 96v0zM521 562l-286 -478q29 -22 64 -34t71 -12q26 0 51.5 7t49.5 21q52 32 78 86t35 113q3 18 4 36t1 35q0 52 -9 94.5t-30 83.5q-6 12 -13.5 24
t-15.5 24v0zM486 595q-28 20 -60 29.5t-64 9.5q-40 0 -78 -16t-68 -50q-38 -43 -56 -102t-18 -122v-6v-5q2 -58 17 -112.5t42 -98.5l285 473v0z" />
    <glyph glyph-name="Thorn" unicode="&#xd9;" horiz-adv-x="694" 
d="M25 671h245v-40l-62 -6l-17 -14v-362v-17t1 -17q1 -28 7 -55.5t23 -49.5q20 -26 50 -39.5t63 -18.5q8 -1 17 -1.5t17 -0.5t16.5 0.5t16.5 1.5q33 4 63 18t50 40q18 24 24 51.5t7 56.5q1 8 1 15.5v15.5v355l-19 18l-60 9v40h211v-40l-60 -9l-18 -18v-364v-19.5t-1 -19.5
q-1 -36 -9.5 -71.5t-33.5 -65.5q-28 -33 -68 -48.5t-83 -21.5q-14 -2 -28 -3t-28 -1q-15 0 -30.5 1t-30.5 4q-42 5 -80.5 21t-65.5 48q-25 30 -33.5 65.5t-9.5 71.5q-1 10 -1 19.5v19.5v371l-17 14l-57 6v40v0zM201 932h99l97 -190h-50l-146 190v0z" />
    <glyph glyph-name="Eth" unicode="&#xda;" horiz-adv-x="694" 
d="M25 671h245v-40l-62 -6l-17 -14v-362v-17t1 -17q1 -28 7 -55.5t23 -49.5q20 -26 50 -39.5t63 -18.5q8 -1 17 -1.5t17 -0.5t16.5 0.5t16.5 1.5q33 4 63 18t50 40q18 24 24 51.5t7 56.5q1 8 1 15.5v15.5v355l-19 18l-60 9v40h211v-40l-60 -9l-18 -18v-364v-19.5t-1 -19.5
q-1 -36 -9.5 -71.5t-33.5 -65.5q-28 -33 -68 -48.5t-83 -21.5q-14 -2 -28 -3t-28 -1q-15 0 -30.5 1t-30.5 4q-42 5 -80.5 21t-65.5 48q-25 30 -33.5 65.5t-9.5 71.5q-1 10 -1 19.5v19.5v371l-17 14l-57 6v40v0zM406 932h99l-146 -190h-50l97 190v0z" />
    <glyph glyph-name="eth" unicode="&#xdb;" horiz-adv-x="694" 
d="M25 671h245v-40l-62 -6l-17 -14v-362v-17t1 -17q1 -28 7 -55.5t23 -49.5q20 -26 50 -39.5t63 -18.5q8 -1 17 -1.5t17 -0.5t16.5 0.5t16.5 1.5q33 4 63 18t50 40q18 24 24 51.5t7 56.5q1 8 1 15.5v15.5v355l-19 18l-60 9v40h211v-40l-60 -9l-18 -18v-364v-19.5t-1 -19.5
q-1 -36 -9.5 -71.5t-33.5 -65.5q-28 -33 -68 -48.5t-83 -21.5q-14 -2 -28 -3t-28 -1q-15 0 -30.5 1t-30.5 4q-42 5 -80.5 21t-65.5 48q-25 30 -33.5 65.5t-9.5 71.5q-1 10 -1 19.5v19.5v371l-17 14l-57 6v40v0zM315 932h64l110 -190h-54l-88 141l-87 -141h-55l110 190v0z
" />
    <glyph glyph-name="Udieresis" unicode="&#xdc;" horiz-adv-x="694" 
d="M25 671h245v-40l-62 -6l-17 -14v-362v-17t1 -17q1 -28 7 -55.5t23 -49.5q20 -26 50 -39.5t63 -18.5q8 -1 17 -1.5t17 -0.5t16.5 0.5t16.5 1.5q33 4 63 18t50 40q18 24 24 51.5t7 56.5q1 8 1 15.5v15.5v355l-19 18l-60 9v40h211v-40l-60 -9l-18 -18v-364v-19.5t-1 -19.5
q-1 -36 -9.5 -71.5t-33.5 -65.5q-28 -33 -68 -48.5t-83 -21.5q-14 -2 -28 -3t-28 -1q-15 0 -30.5 1t-30.5 4q-42 5 -80.5 21t-65.5 48q-25 30 -33.5 65.5t-9.5 71.5q-1 10 -1 19.5v19.5v371l-17 14l-57 6v40v0zM440 887q24 -1 36.5 -16.5t12.5 -35.5q0 -17 -10 -31.5
t-33 -17.5h-2h-2q-1 -1 -2 -1h-2q-23 0 -35 15t-13 33v1.5v1.5q0 20 12.5 35.5t37.5 15.5v0zM254 887q24 -1 36.5 -16.5t12.5 -35.5q0 -17 -10 -31.5t-33 -17.5h-2h-1h-2h-2q-23 0 -35.5 15.5t-12.5 34.5v1.5v1.5q1 18 12.5 33t36.5 15v0z" />
    <glyph glyph-name="Yacute" unicode="&#xdd;" 
 />
    <glyph glyph-name="glyph236" unicode="&#xde;" horiz-adv-x="0" 
 />
    <glyph glyph-name="germandbls" unicode="&#xdf;" horiz-adv-x="609" 
d="M483 465q-2 0 -4.5 0.5t-4.5 0.5h-5.5h-4.5h-1.5h-1.5q-32 -1 -60 -15.5t-32 -51.5v-4.5v-4.5q0 -35 26.5 -56t60.5 -40l8 -4l8 -4q18 -9 36 -20t32 -24q21 -19 30.5 -44t9.5 -51v-4v-4q-2 -30 -15.5 -59t-37.5 -49q-25 -20 -52.5 -27.5t-56.5 -7.5q-7 0 -15 0.5t-15 1.5
q-23 2 -45.5 6t-43.5 9v132h50l10 -87q14 -9 31 -14.5t34 -5.5q18 0 34.5 7t28.5 23q9 12 14 26t5 28q0 7 -1 13.5t-3 13.5q-7 23 -24.5 38t-38.5 26q-2 2 -4.5 3.5t-5.5 2.5l-12 6t-11 6q-43 22 -79 52t-37 81q0 5 0.5 10.5t1.5 10.5q8 47 42.5 76t77.5 40q4 17 7 34.5
t3 35.5q0 8 -1 17t-3 18q-8 38 -34 63.5t-66 25.5q-43 1 -76.5 -27.5t-48.5 -67.5q-12 -31 -15.5 -64t-3.5 -67v-9.5v-9.5v-9.5v-9.5v-373l8 -18l66 -5v-35h-229v38l58 4l11 15v392q-1 112 61.5 202t178.5 90q8 0 16.5 -0.5t17.5 -1.5q79 -10 108.5 -56.5t29.5 -106.5
q0 -9 -0.5 -18.5t-1.5 -18.5q-2 -19 -6 -37.5t-9 -36.5v0z" />
    <glyph glyph-name="agrave" unicode="&#xe0;" horiz-adv-x="507" 
d="M334 58q-37 -24 -77 -43t-87 -20q-43 -1 -76 21t-46 65q-1 5 -2.5 10t-1.5 10q-1 5 -1.5 10t-0.5 10q0 34 17.5 63t48.5 48q22 13 54.5 24.5t67.5 20.5q28 8 55 14.5t49 11.5v10t1 10v10.5v10.5q0 26 -6 50.5t-29 39.5q-12 8 -25.5 11t-28.5 3h-6h-6q-18 -2 -35.5 -6.5
t-32.5 -10.5v-84q-3 0 -8 -0.5t-11 -0.5t-12 -0.5t-12 -0.5h-2h-2q-16 0 -30 2.5t-19 9.5q-3 5 -4 10.5t-2 10.5v4.5t1 4.5q3 16 13.5 31.5t22.5 25.5q2 2 4.5 4t5.5 4q28 19 61 28t67 11q6 1 11.5 1h11.5h8h8q8 -1 16.5 -1.5t15.5 -1.5q61 -9 84 -47.5t24 -94.5v-290
l17 -16l53 -5v-36h-141l-13 58v0zM334 92v176q-17 -5 -39.5 -11t-45.5 -14q-45 -15 -82.5 -40.5t-37.5 -69.5q0 -4 0.5 -8.5t1.5 -9.5q7 -37 27 -52t47 -15q11 0 22.5 2t22.5 5q16 5 32 11.5t30 14.5q6 2 11.5 5t10.5 6v0zM107 736h99l97 -190h-50l-146 190v0z" />
    <glyph glyph-name="aacute" unicode="&#xe1;" horiz-adv-x="507" 
d="M334 58q-37 -24 -77 -43t-87 -20q-43 -1 -76 21t-46 65q-1 5 -2.5 10t-1.5 10q-1 5 -1.5 10t-0.5 10q0 34 17.5 63t48.5 48q22 13 54.5 24.5t67.5 20.5q28 8 55 14.5t49 11.5v10t1 10v10.5v10.5q0 26 -6 50.5t-29 39.5q-12 8 -25.5 11t-28.5 3h-6h-6q-18 -2 -35.5 -6.5
t-32.5 -10.5v-84q-3 0 -8 -0.5t-11 -0.5t-12 -0.5t-12 -0.5h-2h-2q-16 0 -30 2.5t-19 9.5q-3 5 -4 10.5t-2 10.5v4.5t1 4.5q3 16 13.5 31.5t22.5 25.5q2 2 4.5 4t5.5 4q28 19 61 28t67 11q6 1 11.5 1h11.5h8h8q8 -1 16.5 -1.5t15.5 -1.5q61 -9 84 -47.5t24 -94.5v-290
l17 -16l53 -5v-36h-141l-13 58v0zM334 92v176q-17 -5 -39.5 -11t-45.5 -14q-45 -15 -82.5 -40.5t-37.5 -69.5q0 -4 0.5 -8.5t1.5 -9.5q7 -37 27 -52t47 -15q11 0 22.5 2t22.5 5q16 5 32 11.5t30 14.5q6 2 11.5 5t10.5 6v0zM312 736h99l-146 -190h-50l97 190v0z" />
    <glyph glyph-name="acircumflex" unicode="&#xe2;" horiz-adv-x="507" 
d="M334 58q-37 -24 -77 -43t-87 -20q-43 -1 -76 21t-46 65q-1 5 -2.5 10t-1.5 10q-1 5 -1.5 10t-0.5 10q0 34 17.5 63t48.5 48q22 13 54.5 24.5t67.5 20.5q28 8 55 14.5t49 11.5v10t1 10v10.5v10.5q0 26 -6 50.5t-29 39.5q-12 8 -25.5 11t-28.5 3h-6h-6q-18 -2 -35.5 -6.5
t-32.5 -10.5v-84q-3 0 -8 -0.5t-11 -0.5t-12 -0.5t-12 -0.5h-2h-2q-16 0 -30 2.5t-19 9.5q-3 5 -4 10.5t-2 10.5v4.5t1 4.5q3 16 13.5 31.5t22.5 25.5q2 2 4.5 4t5.5 4q28 19 61 28t67 11q6 1 11.5 1h11.5h8h8q8 -1 16.5 -1.5t15.5 -1.5q61 -9 84 -47.5t24 -94.5v-290
l17 -16l53 -5v-36h-141l-13 58v0zM334 92v176q-17 -5 -39.5 -11t-45.5 -14q-45 -15 -82.5 -40.5t-37.5 -69.5q0 -4 0.5 -8.5t1.5 -9.5q7 -37 27 -52t47 -15q11 0 22.5 2t22.5 5q16 5 32 11.5t30 14.5q6 2 11.5 5t10.5 6v0zM221 736h64l110 -190h-54l-88 141l-87 -141h-55
l110 190v0z" />
    <glyph glyph-name="atilde" unicode="&#xe3;" horiz-adv-x="507" 
d="M334 58q-37 -24 -77 -43t-87 -20q-43 -1 -76 21t-46 65q-1 5 -2.5 10t-1.5 10q-1 5 -1.5 10t-0.5 10q0 34 17.5 63t48.5 48q22 13 54.5 24.5t67.5 20.5q28 8 55 14.5t49 11.5v10t1 10v10.5v10.5q0 26 -6 50.5t-29 39.5q-12 8 -25.5 11t-28.5 3h-6h-6q-18 -2 -35.5 -6.5
t-32.5 -10.5v-84q-3 0 -8 -0.5t-11 -0.5t-12 -0.5t-12 -0.5h-2h-2q-16 0 -30 2.5t-19 9.5q-3 5 -4 10.5t-2 10.5v4.5t1 4.5q3 16 13.5 31.5t22.5 25.5q2 2 4.5 4t5.5 4q28 19 61 28t67 11q6 1 11.5 1h11.5h8h8q8 -1 16.5 -1.5t15.5 -1.5q61 -9 84 -47.5t24 -94.5v-290
l17 -16l53 -5v-36h-141l-13 58v0zM334 92v176q-17 -5 -39.5 -11t-45.5 -14q-45 -15 -82.5 -40.5t-37.5 -69.5q0 -4 0.5 -8.5t1.5 -9.5q7 -37 27 -52t47 -15q11 0 22.5 2t22.5 5q16 5 32 11.5t30 14.5q6 2 11.5 5t10.5 6v0zM364 708h41v-2v-1v-2v-2q0 -53 -22.5 -82.5
t-62.5 -29.5q-14 0 -30 4t-33 11q-6 3 -13.5 6.5t-15.5 7.5q-4 2 -7.5 4t-6.5 3q-11 5 -21 8.5t-19 3.5q-13 0 -22.5 -10.5t-9.5 -38.5v-4t1 -3v-4v-4h-43q1 53 20.5 86.5t58.5 34.5q14 0 29.5 -4.5t32.5 -12.5q2 -1 4.5 -2t4.5 -2q3 -2 6 -3.5t6 -3.5q19 -9 36.5 -17
t30.5 -8q16 0 25.5 14.5t9.5 52.5v0z" />
    <glyph glyph-name="adieresis" unicode="&#xe4;" horiz-adv-x="507" 
d="M334 58q-37 -24 -77 -43t-87 -20q-43 -1 -76 21t-46 65q-1 5 -2.5 10t-1.5 10q-1 5 -1.5 10t-0.5 10q0 34 17.5 63t48.5 48q22 13 54.5 24.5t67.5 20.5q28 8 55 14.5t49 11.5v10t1 10v10.5v10.5q0 26 -6 50.5t-29 39.5q-12 8 -25.5 11t-28.5 3h-6h-6q-18 -2 -35.5 -6.5
t-32.5 -10.5v-84q-3 0 -8 -0.5t-11 -0.5t-12 -0.5t-12 -0.5h-2h-2q-16 0 -30 2.5t-19 9.5q-3 5 -4 10.5t-2 10.5v4.5t1 4.5q3 16 13.5 31.5t22.5 25.5q2 2 4.5 4t5.5 4q28 19 61 28t67 11q6 1 11.5 1h11.5h8h8q8 -1 16.5 -1.5t15.5 -1.5q61 -9 84 -47.5t24 -94.5v-290
l17 -16l53 -5v-36h-141l-13 58v0zM334 92v176q-17 -5 -39.5 -11t-45.5 -14q-45 -15 -82.5 -40.5t-37.5 -69.5q0 -4 0.5 -8.5t1.5 -9.5q7 -37 27 -52t47 -15q11 0 22.5 2t22.5 5q16 5 32 11.5t30 14.5q6 2 11.5 5t10.5 6v0zM346 691q24 -1 36.5 -16.5t12.5 -35.5
q0 -17 -10 -31.5t-33 -17.5h-2h-2q-1 -1 -2 -1h-2q-23 0 -35 15t-13 33v1.5v1.5q0 20 12.5 35.5t37.5 15.5v0zM160 691q24 -1 36.5 -16.5t12.5 -35.5q0 -17 -10 -31.5t-33 -17.5h-2h-1h-2h-2q-23 0 -35.5 15.5t-12.5 34.5v1.5v1.5q1 18 12.5 33t36.5 15v0z" />
    <glyph glyph-name="aring" unicode="&#xe5;" horiz-adv-x="507" 
d="M418 347v-290l17 -16l53 -5v-36h-141l-13 58q-37 -24 -77 -43t-87 -20q-43 -1 -76 21t-46 65q-1 5 -2.5 10t-1.5 10q-1 5 -1.5 10t-0.5 10q0 34 17.5 63t48.5 48q22 13 54.5 24.5t67.5 20.5q28 8 55 14.5t49 11.5v10t1 10v10.5v10.5q0 26 -6 50.5t-29 39.5
q-12 8 -25.5 11t-28.5 3h-6h-6q-18 -2 -35.5 -6.5t-32.5 -10.5v-84q-3 0 -8 -0.5t-11 -0.5t-12 -0.5t-12 -0.5h-2h-2q-16 0 -30 2.5t-19 9.5q-3 5 -4 10.5t-2 10.5v4.5t1 4.5q3 16 13.5 31.5t22.5 25.5q2 2 4.5 4t5.5 4q28 19 61 28t67 11q6 1 11.5 1h11.5h8h8
q8 -1 16.5 -1.5t15.5 -1.5q61 -9 84 -47.5t24 -94.5v0zM334 268q-17 -5 -39.5 -11t-45.5 -14q-45 -15 -82.5 -40.5t-37.5 -69.5q0 -4 0.5 -8.5t1.5 -9.5q7 -37 27 -52t47 -15q11 0 22.5 2t22.5 5q16 5 32 11.5t30 14.5q6 2 11.5 5t10.5 6v176v0zM250 781q56 -1 86.5 -38
t31.5 -81q0 -32 -17.5 -61.5t-55.5 -45.5q-5 -2 -10.5 -4t-10.5 -3q-6 -1 -11.5 -1.5t-10.5 -0.5q-40 0 -74.5 26t-42.5 69q0 3 -0.5 5.5t-0.5 5.5q-1 3 -1 5.5v5.5q0 47 34 82.5t83 35.5v0zM250 737q-35 0 -52 -21.5t-18 -46.5v-1.5v-1.5v-1.5v-1.5q1 -27 18.5 -49.5
t49.5 -23.5q4 0 8.5 0.5t8.5 1.5q29 6 43.5 26.5t14.5 43.5q0 29 -18.5 52t-54.5 23v0z" />
    <glyph glyph-name="Otilde" unicode="&#xe6;" horiz-adv-x="724" 
d="M166 347q-3 0 -8 -0.5t-11 -0.5q-7 0 -14 -0.5t-15 -0.5q-15 0 -28 2t-18 7q-4 5 -5.5 10t-1.5 11q0 4 0.5 8t1.5 8q3 10 7 19t8 15q2 3 3.5 4.5t2.5 3.5q24 26 57 38.5t68 16.5q12 2 23.5 2.5t23.5 0.5q43 0 73 -11.5t53 -48.5q26 28 62 44.5t73 16.5q20 0 39.5 -4.5
t38.5 -15.5q48 -26 64 -72.5t19 -96.5v-8v-8v-6.5v-7.5q-1 -4 -1 -7.5v-7.5h-279v-139q32 -30 68.5 -47.5t81.5 -17.5h1.5h1.5q35 0 63 12.5t55 32.5q2 2 4.5 3.5t4.5 3.5v-55q-40 -29 -82 -44t-84 -15q-45 0 -89 17.5t-84 54.5q-40 -28 -83 -48.5t-94 -20.5
q-31 0 -58.5 11.5t-44.5 39.5q-10 17 -15 34.5t-5 35.5q-1 35 15.5 66t47.5 50q22 13 53.5 24.5t65.5 20.5q27 8 52.5 14.5t46.5 11.5v9.5t1 9.5v10v10v5.5v5.5q-1 24 -7.5 46t-26.5 35q-11 8 -24 11t-27 3q-19 0 -38 -5t-36 -12v-84v0zM324 92v176q-16 -5 -36.5 -10.5
t-41.5 -12.5q-44 -16 -81 -41.5t-38 -70.5q0 -4 0.5 -8.5t1.5 -9.5q6 -37 25.5 -52t44.5 -15q11 0 23 2t24 6q15 5 31 12t29 14q5 3 9.5 5.5t8.5 4.5v0zM402 297h190v3v3v2.5v2.5q0 9 -0.5 18t-0.5 18q-3 36 -18.5 66t-55.5 35q-1 0 -2.5 0.5t-2.5 0.5h-5.5h-4.5
q-49 1 -69.5 -35t-26.5 -78l-2 -18l-2 -18v0z" />
    <glyph glyph-name="ccedilla" unicode="&#xe7;" horiz-adv-x="446" 
d="M230 0h36v-60q4 2 7.5 2h7.5q34 0 58 -17.5t24 -51.5v-4v-4q-1 -4 -1.5 -8t-1.5 -8q-9 -34 -36.5 -49.5t-59.5 -19.5q-3 0 -5.5 -0.5t-4.5 -0.5h-4.5h-5.5q-17 0 -34.5 3t-34.5 7v35q2 0 4 -0.5t5 -0.5q8 -2 17.5 -3.5t19.5 -2.5q3 -1 7 -1h7q20 0 36.5 5.5t24.5 21.5
q3 6 4.5 10.5t1.5 9.5q1 16 -14 23.5t-33 9.5h-5.5h-5.5h-4t-3 -1h-3.5h-3.5v105v0zM425 42q-47 -26 -89 -37.5t-79 -11.5q-106 0 -162.5 77.5t-57.5 171.5v1.5v1.5q0 80 43.5 150t133.5 89q20 5 37.5 6.5t33.5 1.5q62 0 95 -24t40 -53q2 -5 2.5 -10t0.5 -10
q0 -22 -13.5 -39t-37.5 -17q-10 0 -22.5 4t-26.5 12v82q-8 5 -16.5 8t-17.5 4q-4 1 -8.5 1.5t-8.5 0.5q-16 0 -31.5 -4.5t-29.5 -12.5q-38 -22 -57 -62.5t-23 -84.5q-1 -9 -1.5 -17.5t-0.5 -16.5v-16t1 -16q6 -86 52.5 -127t109.5 -41q16 0 33 2.5t34 7.5q16 6 33 13.5
t33 17.5v-52v0z" />
    <glyph glyph-name="egrave" unicode="&#xe8;" horiz-adv-x="491" 
d="M448 106v-55q-42 -27 -90 -43t-98 -16q-17 0 -34.5 2t-34.5 6q-77 22 -114.5 89.5t-38.5 143.5v2v2q-1 32 5.5 62.5t18.5 58.5q26 59 79.5 94t112.5 39q3 1 6.5 1h7.5q38 0 73.5 -14.5t63.5 -45.5q26 -29 35 -65t9 -74v-7.5v-7.5q-1 -4 -1 -7.5v-7.5h-325v-14t1 -14
q2 -50 21 -95.5t66 -71.5q19 -10 38.5 -15t38.5 -5q42 0 83 18t77 40v0zM359 305v4.5v5.5v4.5v4.5q0 16 -1.5 31t-7.5 29q-11 29 -36.5 45t-55.5 16h-4h-4q-3 0 -5 -0.5t-4 -0.5q-52 -7 -80.5 -48.5t-32.5 -90.5h231v0zM110 736h99l97 -190h-50l-146 190v0z" />
    <glyph glyph-name="eacute" unicode="&#xe9;" horiz-adv-x="491" 
d="M448 106v-55q-42 -27 -90 -43t-98 -16q-17 0 -34.5 2t-34.5 6q-77 22 -114.5 89.5t-38.5 143.5v2v2q-1 32 5.5 62.5t18.5 58.5q26 59 79.5 94t112.5 39q3 1 6.5 1h7.5q38 0 73.5 -14.5t63.5 -45.5q26 -29 35 -65t9 -74v-7.5v-7.5q-1 -4 -1 -7.5v-7.5h-325v-14t1 -14
q2 -50 21 -95.5t66 -71.5q19 -10 38.5 -15t38.5 -5q42 0 83 18t77 40v0zM359 305v4.5v5.5v4.5v4.5q0 16 -1.5 31t-7.5 29q-11 29 -36.5 45t-55.5 16h-4h-4q-3 0 -5 -0.5t-4 -0.5q-52 -7 -80.5 -48.5t-32.5 -90.5h231v0zM315 736h99l-146 -190h-50l97 190v0z" />
    <glyph glyph-name="ecircumflex" unicode="&#xea;" horiz-adv-x="491" 
d="M448 106v-55q-42 -27 -90 -43t-98 -16q-17 0 -34.5 2t-34.5 6q-77 22 -114.5 89.5t-38.5 143.5v2v2q-1 32 5.5 62.5t18.5 58.5q26 59 79.5 94t112.5 39q3 1 6.5 1h7.5q38 0 73.5 -14.5t63.5 -45.5q26 -29 35 -65t9 -74v-7.5v-7.5q-1 -4 -1 -7.5v-7.5h-325v-14t1 -14
q2 -50 21 -95.5t66 -71.5q19 -10 38.5 -15t38.5 -5q42 0 83 18t77 40v0zM359 305v4.5v5.5v4.5v4.5q0 16 -1.5 31t-7.5 29q-11 29 -36.5 45t-55.5 16h-4h-4q-3 0 -5 -0.5t-4 -0.5q-52 -7 -80.5 -48.5t-32.5 -90.5h231v0zM224 736h64l110 -190h-54l-88 141l-87 -141h-55
l110 190v0z" />
    <glyph glyph-name="edieresis" unicode="&#xeb;" horiz-adv-x="491" 
d="M448 106v-55q-42 -27 -90 -43t-98 -16q-17 0 -34.5 2t-34.5 6q-77 22 -114.5 89.5t-38.5 143.5v2v2q-1 32 5.5 62.5t18.5 58.5q26 59 79.5 94t112.5 39q3 1 6.5 1h7.5q38 0 73.5 -14.5t63.5 -45.5q26 -29 35 -65t9 -74v-7.5v-7.5q-1 -4 -1 -7.5v-7.5h-325v-14t1 -14
q2 -50 21 -95.5t66 -71.5q19 -10 38.5 -15t38.5 -5q42 0 83 18t77 40v0zM359 305v4.5v5.5v4.5v4.5q0 16 -1.5 31t-7.5 29q-11 29 -36.5 45t-55.5 16h-4h-4q-3 0 -5 -0.5t-4 -0.5q-52 -7 -80.5 -48.5t-32.5 -90.5h231v0zM349 691q24 -1 36.5 -16.5t12.5 -35.5
q0 -17 -10 -31.5t-33 -17.5h-2h-2q-1 -1 -2 -1h-2q-23 0 -35 15t-13 33v1.5v1.5q0 20 12.5 35.5t37.5 15.5v0zM163 691q24 -1 36.5 -16.5t12.5 -35.5q0 -17 -10 -31.5t-33 -17.5h-2h-1h-2h-2q-23 0 -35.5 15.5t-12.5 34.5v1.5v1.5q1 18 12.5 33t36.5 15v0z" />
    <glyph glyph-name="igrave" unicode="&#xec;" horiz-adv-x="280" 
d="M151 486h38v-429l17 -16l54 -5v-36h-225v36l53 5l17 16v362h-70v31l116 36v0zM-5 736h99l97 -190h-50l-146 190v0z" />
    <glyph glyph-name="iacute" unicode="&#xed;" horiz-adv-x="280" 
d="M151 486h38v-429l17 -16l54 -5v-36h-225v36l53 5l17 16v362h-70v31l116 36v0zM200 736h99l-146 -190h-50l97 190v0z" />
    <glyph glyph-name="icircumflex" unicode="&#xee;" horiz-adv-x="280" 
d="M151 486h38v-429l17 -16l54 -5v-36h-225v36l53 5l17 16v362h-70v31l116 36v0zM109 736h64l110 -190h-54l-88 141l-87 -141h-55l110 190v0z" />
    <glyph glyph-name="idieresis" unicode="&#xef;" horiz-adv-x="280" 
d="M151 486h38v-429l17 -16l54 -5v-36h-225v36l53 5l17 16v362h-70v31l116 36v0zM234 691q24 -1 36.5 -16.5t12.5 -35.5q0 -17 -10 -31.5t-33 -17.5h-2h-2q-1 -1 -2 -1h-2q-23 0 -35 15t-13 33v1.5v1.5q0 20 12.5 35.5t37.5 15.5v0zM48 691q24 -1 36.5 -16.5t12.5 -35.5
q0 -17 -10 -31.5t-33 -17.5h-2h-1h-2h-2q-23 0 -35 15.5t-12 34.5v1.5v1.5q0 18 11.5 33t36.5 15v0z" />
    <glyph glyph-name="glyph233" unicode="&#xf0;" horiz-adv-x="42" 
 />
    <glyph glyph-name="ntilde" unicode="&#xf1;" horiz-adv-x="568" 
d="M30 0v36l54 5l17 16v362h-71v31l116 36h38v-54q5 2 9.5 4.5t8.5 5.5q34 18 70.5 33t75.5 16q7 0 14.5 -0.5t14.5 -2.5q59 -10 81 -52.5t22 -96.5v-282l17 -16l54 -5v-36h-219v36l48 5l17 16v265q0 58 -26.5 80.5t-64.5 22.5q-13 0 -27.5 -2t-29.5 -6q-16 -5 -33 -11.5
t-32 -13.5v-335l17 -16l48 -5v-36h-219v0zM384 708h41v-2v-1v-2v-2q0 -53 -22.5 -82.5t-62.5 -29.5q-14 0 -30 4t-33 11q-6 3 -13.5 6.5t-15.5 7.5q-4 2 -7.5 4t-6.5 3q-11 5 -21 8.5t-19 3.5q-13 0 -22.5 -10.5t-9.5 -38.5v-4t1 -3v-4v-4h-43q1 53 20.5 86.5t58.5 34.5
q14 0 29.5 -4.5t32.5 -12.5q2 -1 4.5 -2t4.5 -2q3 -2 6 -3.5t6 -3.5q19 -9 36.5 -17t30.5 -8q16 0 25.5 14.5t9.5 52.5v0z" />
    <glyph glyph-name="ograve" unicode="&#xf2;" horiz-adv-x="539" 
d="M269 491q115 0 173 -77t59 -169v-1.5v-1.5q0 -94 -58 -171.5t-174 -77.5q-115 0 -173 77t-58 171t58 171.5t173 78.5v0zM269 447q-70 0 -104.5 -64.5t-35.5 -141.5v-1.5v-1.5q1 -76 36 -140t104 -64q70 0 104.5 64.5t34.5 141.5v1.5v1.5q0 76 -35 140t-104 64v0zM123 736
h99l97 -190h-50l-146 190v0z" />
    <glyph glyph-name="oacute" unicode="&#xf3;" horiz-adv-x="539" 
d="M269 491q115 0 173 -77t59 -169v-1.5v-1.5q0 -94 -58 -171.5t-174 -77.5q-115 0 -173 77t-58 171t58 171.5t173 78.5v0zM269 447q-70 0 -104.5 -64.5t-35.5 -141.5v-1.5v-1.5q1 -76 36 -140t104 -64q70 0 104.5 64.5t34.5 141.5v1.5v1.5q0 76 -35 140t-104 64v0zM328 736
h99l-146 -190h-50l97 190v0z" />
    <glyph glyph-name="ocircumflex" unicode="&#xf4;" horiz-adv-x="539" 
d="M269 491q115 0 173 -77t59 -169v-1.5v-1.5q0 -94 -58 -171.5t-174 -77.5q-115 0 -173 77t-58 171t58 171.5t173 78.5v0zM269 447q-70 0 -104.5 -64.5t-35.5 -141.5v-1.5v-1.5q1 -76 36 -140t104 -64q70 0 104.5 64.5t34.5 141.5v1.5v1.5q0 76 -35 140t-104 64v0zM237 736
h64l110 -190h-54l-88 141l-87 -141h-55l110 190v0z" />
    <glyph glyph-name="otilde" unicode="&#xf5;" horiz-adv-x="539" 
d="M269 491q115 0 173 -77t59 -169v-1.5v-1.5q0 -94 -58 -171.5t-174 -77.5q-115 0 -173 77t-58 171t58 171.5t173 78.5v0zM269 447q-70 0 -104.5 -64.5t-35.5 -141.5v-1.5v-1.5q1 -76 36 -140t104 -64q70 0 104.5 64.5t34.5 141.5v1.5v1.5q0 76 -35 140t-104 64v0zM380 708
h41v-2v-1v-2v-2q0 -53 -22.5 -82.5t-62.5 -29.5q-14 0 -30 4t-33 11q-6 3 -13.5 6.5t-15.5 7.5q-4 2 -7.5 4t-6.5 3q-11 5 -21 8.5t-19 3.5q-13 0 -22.5 -10.5t-9.5 -38.5v-4t1 -3v-4v-4h-43q1 53 20.5 86.5t58.5 34.5q14 0 29.5 -4.5t32.5 -12.5q2 -1 4.5 -2t4.5 -2
q3 -2 6 -3.5t6 -3.5q19 -9 36.5 -17t30.5 -8q16 0 25.5 14.5t9.5 52.5v0z" />
    <glyph glyph-name="odieresis" unicode="&#xf6;" horiz-adv-x="539" 
d="M269 491q115 0 173 -77t59 -169v-1.5v-1.5q0 -94 -58 -171.5t-174 -77.5q-115 0 -173 77t-58 171t58 171.5t173 78.5v0zM269 447q-70 0 -104.5 -64.5t-35.5 -141.5v-1.5v-1.5q1 -76 36 -140t104 -64q70 0 104.5 64.5t34.5 141.5v1.5v1.5q0 76 -35 140t-104 64v0zM362 691
q24 -1 36.5 -16.5t12.5 -35.5q0 -17 -10 -31.5t-33 -17.5h-2h-2q-1 -1 -2 -1h-2q-23 0 -35 15t-13 33v1.5v1.5q0 20 12.5 35.5t37.5 15.5v0zM176 691q24 -1 36.5 -16.5t12.5 -35.5q0 -17 -10 -31.5t-33 -17.5h-2h-1h-2h-2q-23 0 -35.5 15.5t-12.5 34.5v1.5v1.5q1 18 12.5 33
t36.5 15v0z" />
    <glyph glyph-name="Aacute" unicode="&#xf7;" 
 />
    <glyph glyph-name="OE" unicode="&#xf8;" horiz-adv-x="539" 
d="M423 560l34 -19l-52 -93q29 -24 51.5 -52.5t33.5 -65.5q6 -21 9.5 -43t3.5 -45q0 -37 -9 -73.5t-28 -68.5q-33 -54 -85 -80.5t-110 -26.5q-29 0 -58 6.5t-57 19.5l-58 -98l-32 20l58 101q-20 19 -37.5 40t-28.5 46q-11 26 -16.5 54t-5.5 57q0 38 9 75t28 68
q32 54 85.5 80.5t111.5 27.5q26 0 51 -5t50 -16l52 91v0zM371 392l-185 -323q19 -17 41.5 -26t45.5 -9q25 0 48.5 11t41.5 33q26 32 37.5 72t11.5 83t-10.5 84t-30.5 75v0zM344 422q-14 10 -29.5 15.5t-30.5 7.5q-4 1 -8 1h-8q-25 0 -49.5 -10.5t-42.5 -33.5
q-25 -31 -36.5 -70.5t-11.5 -80.5v-8.5v-8.5q2 -34 10 -67.5t21 -62.5l185 318v0z" />
    <glyph glyph-name="ugrave" unicode="&#xf9;" horiz-adv-x="569" 
d="M142 491h38v-331q0 -59 27.5 -82t67.5 -23q13 0 26.5 1.5t27.5 4.5q16 4 32.5 10t31.5 13v339h-70v31l115 37h38v-434l18 -16l47 -5v-36h-148v56q-36 -25 -76.5 -44t-84.5 -20h-3.5h-3.5q-2 1 -3.5 1h-3.5q-67 4 -94 46.5t-27 103.5v280h-71v31l116 37v0zM138 736h99
l97 -190h-50l-146 190v0z" />
    <glyph glyph-name="uacute" unicode="&#xfa;" horiz-adv-x="569" 
d="M142 491h38v-331q0 -59 27.5 -82t67.5 -23q13 0 26.5 1.5t27.5 4.5q16 4 32.5 10t31.5 13v339h-70v31l115 37h38v-434l18 -16l47 -5v-36h-148v56q-36 -25 -76.5 -44t-84.5 -20h-3.5h-3.5q-2 1 -3.5 1h-3.5q-67 4 -94 46.5t-27 103.5v280h-71v31l116 37v0zM343 736h99
l-146 -190h-50l97 190v0z" />
    <glyph glyph-name="ucircumflex" unicode="&#xfb;" horiz-adv-x="569" 
d="M142 491h38v-331q0 -59 27.5 -82t67.5 -23q13 0 26.5 1.5t27.5 4.5q16 4 32.5 10t31.5 13v339h-70v31l115 37h38v-434l18 -16l47 -5v-36h-148v56q-36 -25 -76.5 -44t-84.5 -20h-3.5h-3.5q-2 1 -3.5 1h-3.5q-67 4 -94 46.5t-27 103.5v280h-71v31l116 37v0zM252 736h64
l110 -190h-54l-88 141l-87 -141h-55l110 190v0z" />
    <glyph glyph-name="udieresis" unicode="&#xfc;" horiz-adv-x="569" 
d="M142 491h38v-331q0 -59 27.5 -82t67.5 -23q13 0 26.5 1.5t27.5 4.5q16 4 32.5 10t31.5 13v339h-70v31l115 37h38v-434l18 -16l47 -5v-36h-148v56q-36 -25 -76.5 -44t-84.5 -20h-3.5h-3.5q-2 1 -3.5 1h-3.5q-67 4 -94 46.5t-27 103.5v280h-71v31l116 37v0zM377 691
q24 -1 36.5 -16.5t12.5 -35.5q0 -17 -10 -31.5t-33 -17.5h-2h-2q-1 -1 -2 -1h-2q-23 0 -35 15t-13 33v1.5v1.5q0 20 12.5 35.5t37.5 15.5v0zM191 691q24 -1 36.5 -16.5t12.5 -35.5q0 -17 -10 -31.5t-33 -17.5h-2h-1h-2h-2q-23 0 -35.5 15.5t-12.5 34.5v1.5v1.5q1 18 12.5 33
t36.5 15v0z" />
    <glyph glyph-name="yacute" unicode="&#xfd;" 
 />
    <glyph glyph-name="glyph237" unicode="&#xfe;" horiz-adv-x="0" 
 />
    <glyph glyph-name="Egrave" unicode="&#xff;" horiz-adv-x="495" 
d="M0 481h216v-37l-53 -4l-12 -16l120 -311l125 311l-8 16l-54 4v37h178v-37l-58 -8l-200 -485q-6 -12 -13 -27.5t-15 -31.5q-22 -40 -54 -74t-76 -34q-7 0 -14.5 1t-15.5 3q-22 7 -31.5 20t-9.5 29q0 5 1 10l2 10q3 10 9 19.5t14 17.5l95 -39q24 27 41 58t30 63
q3 7 5.5 14.5t5.5 13.5l-168 434l-60 6v37v0zM341 691q24 -1 36.5 -16.5t12.5 -35.5q0 -17 -10 -31.5t-33 -17.5h-2h-2q-1 -1 -2 -1h-2q-23 0 -35 15t-13 33v1.5v1.5q0 20 12.5 35.5t37.5 15.5v0zM155 691q24 -1 36.5 -16.5t12.5 -35.5q0 -17 -10 -31.5t-33 -17.5h-2h-1h-2
h-2q-23 0 -35.5 15.5t-12.5 34.5v1.5v1.5q1 18 12.5 33t36.5 15v0z" />
    <glyph glyph-name="Abreve" unicode="&#x102;" 
 />
    <glyph glyph-name="abreve" unicode="&#x103;" 
 />
    <glyph glyph-name="Aogonek" unicode="&#x104;" 
 />
    <glyph glyph-name="aogonek" unicode="&#x105;" 
 />
    <glyph glyph-name="Cacute" unicode="&#x106;" 
 />
    <glyph glyph-name="cacute" unicode="&#x107;" 
 />
    <glyph glyph-name="Ccaron" unicode="&#x10c;" 
 />
    <glyph glyph-name="ccaron" unicode="&#x10d;" 
 />
    <glyph glyph-name="Dcaron" unicode="&#x10e;" 
 />
    <glyph glyph-name="dcaron" unicode="&#x10f;" 
 />
    <glyph glyph-name="Dcroat" unicode="&#x110;" 
 />
    <glyph glyph-name="dcroat" unicode="&#x111;" 
 />
    <glyph glyph-name="Eogonek" unicode="&#x118;" 
 />
    <glyph glyph-name="eogonek" unicode="&#x119;" 
 />
    <glyph glyph-name="Ecaron" unicode="&#x11a;" 
 />
    <glyph glyph-name="ecaron" unicode="&#x11b;" 
 />
    <glyph glyph-name="Gbreve" unicode="&#x11e;" 
 />
    <glyph glyph-name="gbreve" unicode="&#x11f;" 
 />
    <glyph glyph-name="Idotaccent" unicode="&#x130;" 
 />
    <glyph glyph-name="thorn" unicode="&#x131;" horiz-adv-x="0" 
 />
    <glyph glyph-name="Lacute" unicode="&#x139;" 
 />
    <glyph glyph-name="lacute" unicode="&#x13a;" 
 />
    <glyph glyph-name="Lcaron" unicode="&#x13d;" 
 />
    <glyph glyph-name="lcaron" unicode="&#x13e;" 
 />
    <glyph glyph-name="Ldot" unicode="&#x13f;" 
 />
    <glyph glyph-name="ldot" unicode="&#x140;" 
 />
    <glyph glyph-name="glyph225" unicode="&#x141;" 
 />
    <glyph glyph-name="glyph226" unicode="&#x142;" 
 />
    <glyph glyph-name="Nacute" unicode="&#x143;" 
 />
    <glyph glyph-name="nacute" unicode="&#x144;" 
 />
    <glyph glyph-name="Ncaron" unicode="&#x147;" 
 />
    <glyph glyph-name="ncaron" unicode="&#x148;" 
 />
    <glyph glyph-name="Ohungarumlaut" unicode="&#x150;" 
 />
    <glyph glyph-name="ohungarumlaut" unicode="&#x151;" 
 />
    <glyph glyph-name="fi" unicode="&#x152;" horiz-adv-x="993" 
d="M553 549v122h376v-146h-56l-14 85l-14 15h-208v-253h140l15 14l10 73h47v-220h-47l-10 72l-15 15h-140v-280h244l15 17l16 100h53v-163h-412v123q-38 -64 -88 -94.5t-127 -34.5q-148 0 -221 107.5t-74 237.5q0 26 3 52.5t9 51.5q26 106 105.5 171t182.5 65q13 0 26.5 -1
t26.5 -3q57 -10 95 -43t62 -83v0zM350 627q-104 0 -154.5 -88.5t-51.5 -196.5v-4.5v-4.5q2 -108 53 -198t148 -91q14 0 27.5 2t28.5 6q77 22 115.5 105t38.5 178v1.5v1.5q-1 108 -52 198t-153 91v0z" />
    <glyph glyph-name="fl" unicode="&#x153;" horiz-adv-x="817" 
d="M775 263h-298q0 -8 0.5 -16.5t1.5 -16.5q5 -61 35.5 -113.5t99.5 -61.5q7 -1 13 -1.5t12 -0.5q34 0 64 13t59 31q3 3 6.5 5t6.5 4v-55q-37 -26 -77.5 -42.5t-86.5 -16.5h-2h-2h-2h-2q-57 2 -97 28t-72 70q-34 -43 -75 -70t-100 -27q-89 0 -149.5 61.5t-70.5 146.5
q-1 11 -2 21t-1 20q0 117 70 183.5t155 66.5h8.5t9.5 -1q44 -4 86.5 -28t74.5 -70q19 30 44 53t59 35q10 3 20.5 5.5t21.5 3.5q5 0 10.5 0.5t10.5 0.5q22 0 42.5 -4.5t39.5 -14.5q50 -26 68 -73.5t20 -98.5v-5.5v-5.5v-6.5v-6.5q-1 -4 -1 -7v-6v0zM261 447q-65 0 -98 -63
t-34 -139v-1.5v-1.5q0 -78 33 -143t99 -65q65 0 98 64.5t33 141.5v1.5v1.5q-1 76 -33.5 140t-97.5 64v0zM686 305q0 9 -0.5 18.5t-1.5 18.5q-3 36 -19 67t-58 36q-3 1 -6 1h-6q-45 0 -70 -33.5t-36 -73.5q-2 -9 -4 -17.5t-3 -16.5h204v0z" />
    <glyph glyph-name="Racute" unicode="&#x154;" 
 />
    <glyph glyph-name="racute" unicode="&#x155;" 
 />
    <glyph glyph-name="Rcaron" unicode="&#x158;" 
 />
    <glyph glyph-name="rcaron" unicode="&#x159;" 
 />
    <glyph glyph-name="Sacute" unicode="&#x15a;" 
 />
    <glyph glyph-name="sacute" unicode="&#x15b;" 
 />
    <glyph glyph-name="Scedilla" unicode="&#x15e;" 
 />
    <glyph glyph-name="scedilla" unicode="&#x15f;" 
 />
    <glyph glyph-name="glyph227" unicode="&#x160;" horiz-adv-x="556" 
d="M60 20v176h59l12 -115l13 -17q23 -10 51.5 -17t59.5 -7q32 0 62.5 8.5t51.5 27.5q18 17 28.5 40.5t10.5 48.5q0 15 -4 29.5t-12 27.5q-14 21 -42.5 37.5t-59.5 30.5q-22 9 -43.5 17t-37.5 15q-49 21 -90.5 57t-46.5 94q0 2 -0.5 4t-0.5 5v4v4q0 45 20.5 85.5t57.5 66.5
q34 23 73 32.5t79 9.5q11 0 22 -0.5t22 -1.5q33 -4 65.5 -11t61.5 -16v-155h-52l-15 95q-18 20 -45.5 29.5t-56.5 9.5h-7.5t-6.5 -1q-15 -1 -29 -4t-27 -8q-32 -13 -50.5 -43.5t-18.5 -65.5q0 -40 25.5 -65.5t59.5 -41.5q12 -6 25 -11.5t26 -10.5q9 -3 18 -6.5t18 -7.5
q50 -20 94.5 -48.5t61.5 -82.5q4 -12 5.5 -24t1.5 -25q0 -40 -16.5 -77t-47.5 -63q-40 -32 -92.5 -46t-108.5 -14h-7.5h-7.5q-42 1 -83 9t-76 22v0zM135 932h55l87 -141l88 141h54l-110 -190h-64l-110 190v0z" />
    <glyph glyph-name="glyph228" unicode="&#x161;" horiz-adv-x="401" 
d="M344 469v-113h-49l-8 71q-12 6 -27.5 11.5t-32.5 7.5q-5 1 -10.5 1.5t-10.5 0.5q-22 0 -40.5 -8.5t-29.5 -31.5q-4 -8 -5.5 -15.5t-1.5 -15.5q-1 -32 26 -54t59 -38q15 -7 30 -13.5t27 -12.5q40 -19 63.5 -45.5t24.5 -72.5q0 -39 -17 -71t-51 -52q-25 -15 -57 -21t-65 -6
q-34 -1 -66.5 5t-60.5 16v130h48l12 -85q14 -7 31.5 -12.5t34.5 -7.5q6 -1 12 -1.5t12 -0.5q32 0 58 15t30 55q0 2 0.5 3t0.5 3v2.5v2.5q0 37 -30.5 59.5t-67.5 38.5q-9 4 -18.5 8t-17.5 8q-10 4 -19.5 8.5t-16.5 9.5q-29 19 -44 45.5t-17 54.5v4v4q-1 35 18.5 66.5
t57.5 50.5q22 10 46.5 14.5t49.5 4.5h6.5h6.5q29 -1 57 -7.5t52 -15.5v0zM59 736h55l87 -141l88 141h54l-110 -190h-64l-110 190v0z" />
    <glyph glyph-name="uni0162" unicode="&#x162;" 
 />
    <glyph glyph-name="uni0163" unicode="&#x163;" 
 />
    <glyph glyph-name="Tcaron" unicode="&#x164;" 
 />
    <glyph glyph-name="tcaron" unicode="&#x165;" 
 />
    <glyph glyph-name="Uring" unicode="&#x16e;" 
 />
    <glyph glyph-name="uring" unicode="&#x16f;" 
 />
    <glyph glyph-name="Uhungarumlaut" unicode="&#x170;" 
 />
    <glyph glyph-name="uhungarumlaut" unicode="&#x171;" 
 />
    <glyph glyph-name="Iacute" unicode="&#x178;" horiz-adv-x="586" 
d="M-12 671h231v-40l-57 -6l-10 -11l153 -275l168 267l-9 14l-61 11v40h204v-40l-61 -13l-208 -333v-225l16 -14l68 -5v-41h-259v41l68 5l16 14v212l-199 349l-60 10v40v0zM385 887q24 -1 36.5 -16.5t12.5 -35.5q0 -17 -10 -31.5t-33 -17.5h-2h-2q-1 -1 -2 -1h-2
q-23 0 -35 15t-13 33v1.5v1.5q0 20 12.5 35.5t37.5 15.5v0zM199 887q24 -1 36.5 -16.5t12.5 -35.5q0 -17 -10 -31.5t-33 -17.5h-2h-1h-2h-2q-23 0 -35.5 15.5t-12.5 34.5v1.5v1.5q1 18 12.5 33t36.5 15v0z" />
    <glyph glyph-name="Zacute" unicode="&#x179;" 
 />
    <glyph glyph-name="zacute" unicode="&#x17a;" 
 />
    <glyph glyph-name="Zdotaccent" unicode="&#x17b;" 
 />
    <glyph glyph-name="zdotaccent" unicode="&#x17c;" 
 />
    <glyph glyph-name="Zcaron" unicode="&#x17d;" 
 />
    <glyph glyph-name="zcaron" unicode="&#x17e;" 
 />
    <glyph glyph-name="quotedblright" unicode="&#x192;" horiz-adv-x="556" 
d="M462 561l-85 72q-25 -11 -42 -28.5t-25 -44.5q-7 -24 -9.5 -49t-2.5 -51q0 -12 0.5 -23.5t0.5 -22.5q0 -12 0.5 -23.5t0.5 -22.5h162v-49h-162v-28.5t1 -29.5q0 -22 0.5 -44.5t-0.5 -45.5q-1 -51 -7 -100t-23 -88q-24 -59 -77.5 -105t-121.5 -45q-32 1 -48.5 17.5
t-16.5 38.5v4v4q2 15 10.5 28.5t24.5 24.5l102 -58q55 37 65 92.5t10 115.5v219h-115v49h115v15v15q-1 62 6.5 119.5t56.5 104.5q27 26 63.5 43.5t75.5 17.5q6 0 12 -0.5t12 -1.5q31 -6 46.5 -21t15.5 -35q0 -4 -0.5 -8.5t-2.5 -8.5q-4 -12 -14.5 -24.5t-27.5 -22.5v0z" />
    <glyph glyph-name="uni02BA" unicode="&#x2ba;" horiz-adv-x="0" 
 />
    <glyph glyph-name="arrowright" unicode="&#x2c6;" horiz-adv-x="3864" 
 />
    <glyph glyph-name="glyph224" unicode="&#x2c7;" horiz-adv-x="3872" 
 />
    <glyph glyph-name="house" unicode="&#x2c9;" horiz-adv-x="4502" 
 />
    <glyph glyph-name="endash" unicode="&#x2d8;" horiz-adv-x="0" 
 />
    <glyph glyph-name="sfthyphen" unicode="&#x2d9;" horiz-adv-x="0" 
 />
    <glyph glyph-name="filledbox" unicode="&#x2da;" horiz-adv-x="2" 
 />
    <glyph glyph-name="glyph223" unicode="&#x2db;" horiz-adv-x="1" 
 />
    <glyph glyph-name="onehalf" unicode="&#x2dc;" horiz-adv-x="3" 
 />
    <glyph glyph-name="Gamma" unicode="&#x393;" 
 />
    <glyph glyph-name="Theta" unicode="&#x398;" 
 />
    <glyph glyph-name="exclamdown" unicode="&#x3a3;" 
 />
    <glyph glyph-name="Phi" unicode="&#x3a6;" 
 />
    <glyph glyph-name="Atilde" unicode="&#x3a9;" 
 />
    <glyph glyph-name="alpha" unicode="&#x3b1;" 
 />
    <glyph glyph-name="delta" unicode="&#x3b4;" 
 />
    <glyph glyph-name="epsilon" unicode="&#x3b5;" 
 />
    <glyph glyph-name="guillemotleft" unicode="&#x3c0;" 
 />
    <glyph glyph-name="sigma" unicode="&#x3c3;" 
 />
    <glyph glyph-name="tau" unicode="&#x3c4;" 
 />
    <glyph glyph-name="phi" unicode="&#x3c6;" 
 />
    <glyph glyph-name="glyph259" unicode="&#x2013;" horiz-adv-x="500" 
d="M0 271h500v-61h-500v61v0z" />
    <glyph glyph-name="periodcentered" unicode="&#x2014;" horiz-adv-x="1000" 
d="M0 210v61h1000v-61h-1000v0z" />
    <glyph glyph-name="underscoredbl" unicode="&#x2017;" 
 />
    <glyph glyph-name="Acircumflex" unicode="&#x2018;" horiz-adv-x="1" 
 />
    <glyph glyph-name="Ecircumflex" unicode="&#x2019;" horiz-adv-x="0" 
 />
    <glyph glyph-name="Ugrave" unicode="&#x201a;" 
 />
    <glyph glyph-name="quotedblbase" unicode="&#x201c;" horiz-adv-x="403" 
d="M131 713h43q-3 -4 -6.5 -7.5t-6.5 -7.5q-27 -32 -46.5 -66t-19.5 -76v-5.5v-4.5t0.5 -4.5t0.5 -5.5h64q6 -10 9 -19.5t3 -18.5q0 -23 -16.5 -39.5t-43.5 -16.5h-6.5t-7.5 1q-32 6 -46.5 31t-16.5 54v3.5v3.5v0.5v1.5v1.5v0.5q2 53 31.5 95.5t64.5 78.5v0zM332 713h43
q-30 -35 -54.5 -73t-24.5 -84v-5.5v-4.5t0.5 -4.5t0.5 -5.5h65q6 -10 9 -19.5t3 -18.5q0 -23 -16.5 -39.5t-44.5 -16.5h-6.5t-7.5 1q-28 5 -43.5 28t-17.5 50q-1 3 -1 6v6v3.5v2.5q2 53 31 95.5t64 78.5v0z" />
    <glyph glyph-name="perthousand" unicode="&#x201d;" horiz-adv-x="403" 
d="M74 442h-43q5 6 9.5 11t8.5 11q25 31 43 63.5t18 72.5v4.5v5.5q0 2 -0.5 4.5t-0.5 4.5h-65q-6 10 -9 19t-3 18q0 24 17 40.5t43 16.5q4 0 8 -0.5t8 -1.5q2 0 4 -0.5t4 -1.5q25 -7 37.5 -29t15.5 -46v-5.5v-5.5v-2v-1v-2v-2q-1 -52 -30.5 -95t-64.5 -79v0zM275 442h-43
q30 35 54.5 73t24.5 84v5.5v4.5t-0.5 4.5t-0.5 5.5h-64q-7 10 -10 19.5t-3 18.5q0 23 17 39.5t43 16.5q6 0 12 -1t13 -3q26 -8 38.5 -30.5t14.5 -47.5v-5.5v-5.5v-2v-2q-2 -52 -31.5 -95t-64.5 -79v0z" />
    <glyph glyph-name="dotlessi" unicode="&#x201e;" horiz-adv-x="403" 
d="M74 -163h-43q8 10 15 18.5t14 17.5q21 27 35.5 55.5t14.5 63.5v10t-1 10h-64q-7 10 -9.5 19.5t-2.5 18.5q-1 23 16.5 39.5t43.5 17.5q6 0 12 -1t12 -3q24 -7 36.5 -27t15.5 -43q0 -4 0.5 -8t0.5 -8v-2v-1v-2v-2q-2 -52 -31.5 -94t-64.5 -78v-1zM276 -163h-43q7 9 14 17
t13 16q22 28 37 57.5t15 66.5v8.5t-1 9.5h-65q-7 10 -9.5 19.5t-2.5 18.5q-1 23 16.5 39.5t43.5 17.5q6 0 12 -1t12 -3q26 -8 38.5 -30.5t14.5 -47.5v-5.5v-5.5v-0.5v-1.5v-1.5v-0.5q-2 -52 -31 -94t-64 -78v-1z" />
    <glyph glyph-name="dagger" unicode="&#x2020;" horiz-adv-x="500" 
d="M243 460h14l42 -166l-42 -422h-14l-41 422l41 166v0zM88 528l144 -40v-16l-144 -34l-71 45l71 45v0zM410 528l73 -45l-73 -45l-141 34v16l141 40v0zM249 718l45 -76l-37 -140h-14l-38 140l44 76v0z" />
    <glyph glyph-name="Uacute" unicode="&#x2021;" horiz-adv-x="491" 
d="M448 106v-55q-42 -27 -90 -43t-98 -16q-17 0 -34.5 2t-34.5 6q-77 22 -114.5 89.5t-38.5 143.5v2v2q-1 32 5.5 62.5t18.5 58.5q26 59 79.5 94t112.5 39q3 1 6.5 1h7.5q38 0 73.5 -14.5t63.5 -45.5q26 -29 35 -65t9 -74v-7.5v-7.5q-1 -4 -1 -7.5v-7.5h-325v-14t1 -14
q2 -50 21 -95.5t66 -71.5q19 -10 38.5 -15t38.5 -5q42 0 83 18t77 40v0zM359 305v4.5v5.5v4.5v4.5q0 16 -1.5 31t-7.5 29q-11 29 -36.5 45t-55.5 16h-4h-4q-3 0 -5 -0.5t-4 -0.5q-52 -7 -80.5 -48.5t-32.5 -90.5h231v0zM114 736h55l87 -141l88 141h54l-110 -190h-64
l-110 190v0z" />
    <glyph glyph-name="glyph262" unicode="&#x2022;" horiz-adv-x="687" 
d="M112 426q30 74 94 115t137 41q6 0 12 -0.5t12 -0.5q29 -3 58 -12.5t56 -27.5q53 -34 81.5 -90.5t28.5 -117.5q0 -8 -0.5 -15.5t-1.5 -15.5q-2 -16 -6 -31.5t-10 -30.5q-29 -71 -93 -113t-139 -42h-11.5t-11.5 1q-6 0 -11.5 1t-11.5 2q-89 17 -144.5 89t-55.5 157
q0 23 4 46t13 45v0z" />
    <glyph glyph-name="fraction" unicode="&#x2026;" horiz-adv-x="1000" 
d="M166 118q31 0 46.5 -19.5t15.5 -42.5q1 -24 -14.5 -43.5t-47.5 -19.5q-31 0 -46.5 19t-15.5 42q-1 24 15 44t47 20v0zM499 118q31 0 46.5 -19.5t15.5 -42.5q1 -24 -14.5 -43.5t-47.5 -19.5q-31 0 -46.5 19t-15.5 42q-1 24 15 44t47 20v0zM832 118q31 0 46.5 -19.5
t15.5 -42.5q1 -24 -14.5 -43.5t-47.5 -19.5q-31 0 -46.5 19t-15.5 42q-1 24 15 44t47 20v0z" />
    <glyph glyph-name="circumflex" unicode="&#x2030;" horiz-adv-x="1224" 
d="M671 407q76 0 113 -64.5t38 -141.5v-1.5v-1.5q1 -68 -26.5 -127t-82.5 -75q-12 -4 -23 -5.5t-22 -1.5q-73 0 -110.5 64.5t-38.5 142.5v1.5v1.5q-1 79 37 143.5t115 64.5v0zM669 372q-39 -1 -55.5 -39.5t-20.5 -84.5q-1 -11 -1.5 -22t-0.5 -21q0 -19 1 -35.5t2 -27.5
q1 -10 2.5 -21t4.5 -22q6 -28 21.5 -51.5t46.5 -23.5q37 0 53.5 31t22.5 68q3 21 3.5 41t0.5 34t-0.5 34t-4.5 41q-5 37 -21.5 68t-53.5 31v0zM1043 407q77 0 114 -65t37 -144q0 -68 -27.5 -127.5t-81.5 -74.5q-12 -4 -23 -5.5t-22 -1.5q-73 0 -111 66t-39 145
q0 78 38 142.5t115 64.5v0zM1041 372q-39 -1 -55.5 -39.5t-20.5 -84.5q-1 -11 -1.5 -22t-0.5 -21q0 -19 1 -35.5t2 -27.5q1 -10 2.5 -21t4.5 -22q7 -28 22.5 -51.5t46.5 -23.5q37 0 53 31t22 68q3 21 3.5 41t0.5 34t-0.5 34t-3.5 41q-6 37 -22.5 68t-53.5 31v0zM608 671h61
l-428 -671h-60l427 671v0zM181 683q76 0 113 -64.5t38 -141.5v-1.5v-1.5q1 -68 -26.5 -127.5t-82.5 -76.5q-12 -4 -23 -5.5t-22 -1.5q-73 0 -111 66.5t-38 145.5q0 78 37.5 143t114.5 65v0zM179 647q-40 0 -56 -38.5t-20 -84.5q-1 -11 -1.5 -22t-0.5 -21q0 -19 1 -35.5
t2 -27.5q1 -9 2.5 -20t3.5 -22q7 -28 22.5 -52t46.5 -24q37 0 53.5 30.5t22.5 66.5q3 22 3.5 42t0.5 34t-0.5 34t-3.5 41q-6 37 -22.5 68t-53.5 31v0z" />
    <glyph glyph-name="Igrave" unicode="&#x2039;" horiz-adv-x="245" 
d="M203 413v-66l-117 -107l117 -108v-65l-164 133v80l164 133v0z" />
    <glyph glyph-name="Oacute" unicode="&#x203a;" horiz-adv-x="245" 
d="M46 413l163 -133v-80l-163 -133v65l117 108l-117 107v66v0z" />
    <glyph glyph-name="exclamdbl" unicode="&#x203c;" 
 />
    <glyph glyph-name="uni207F" unicode="&#x207f;" 
 />
    <glyph glyph-name="franc" unicode="&#x20a3;" 
 />
    <glyph glyph-name="peseta" unicode="&#x20a7;" 
 />
    <glyph glyph-name="trademark" unicode="&#x2122;" horiz-adv-x="822" 
d="M256 639v-214l38 -4v-22h-122v21l39 4v215h-52l-8 -6l-6 -40h-27v69h229v-69h-26l-6 40l-7 6h-52v0zM378 399v22l31 4v209l-32 5v23h102v-12l68 -180l69 179v13h99v-23l-31 -5v-209l31 -5v-21h-106v21l30 5v212l-92 -238h-22l-88 238v-212l31 -4v-22h-90v0z" />
    <glyph glyph-name="arrowleft" unicode="&#x2190;" 
 />
    <glyph glyph-name="arrowup" unicode="&#x2191;" 
 />
    <glyph glyph-name="glyph257" unicode="&#x2192;" horiz-adv-x="602" 
d="M93 552l416 -218l-416 -219v437v0z" />
    <glyph glyph-name="arrowdown" unicode="&#x2193;" 
 />
    <glyph glyph-name="arrowboth" unicode="&#x2194;" 
 />
    <glyph glyph-name="arrowupdn" unicode="&#x2195;" 
 />
    <glyph glyph-name="arrowupdnbse" unicode="&#x21a8;" 
 />
    <glyph glyph-name="questiondown" unicode="&#x2202;" 
 />
    <glyph glyph-name="quoteright" unicode="&#x2206;" 
 />
    <glyph glyph-name="florin" unicode="&#x220f;" 
 />
    <glyph glyph-name="minus" unicode="&#x2212;" 
 />
    <glyph glyph-name="Icircumflex" unicode="&#x2215;" horiz-adv-x="42" 
 />
    <glyph glyph-name="Ucircumflex" unicode="&#x2219;" horiz-adv-x="279" 
 />
    <glyph glyph-name="quotedblleft" unicode="&#x221a;" 
 />
    <glyph glyph-name="yen" unicode="&#x221e;" 
 />
    <glyph glyph-name="orthogonal" unicode="&#x221f;" 
 />
    <glyph glyph-name="intersection" unicode="&#x2229;" 
 />
    <glyph glyph-name="guillemotright" unicode="&#x222b;" 
 />
    <glyph glyph-name="quoteleft" unicode="&#x2248;" 
 />
    <glyph glyph-name="AE" unicode="&#x2260;" 
 />
    <glyph glyph-name="equivalence" unicode="&#x2261;" 
 />
    <glyph glyph-name="ordfeminine" unicode="&#x2264;" 
 />
    <glyph glyph-name="ordmasculine" unicode="&#x2265;" 
 />
    <glyph glyph-name="glyph258" unicode="&#x2302;" horiz-adv-x="500" 
d="M102 -105h301v-51h-301v51v0z" />
    <glyph glyph-name="revlogicalnot" unicode="&#x2310;" 
 />
    <glyph glyph-name="integraltp" unicode="&#x2320;" 
 />
    <glyph glyph-name="integralbt" unicode="&#x2321;" 
 />
    <glyph glyph-name="SF100000" unicode="&#x2500;" 
 />
    <glyph glyph-name="SF110000" unicode="&#x2502;" 
 />
    <glyph glyph-name="SF010000" unicode="&#x250c;" 
 />
    <glyph glyph-name="SF030000" unicode="&#x2510;" 
 />
    <glyph glyph-name="SF020000" unicode="&#x2514;" 
 />
    <glyph glyph-name="SF040000" unicode="&#x2518;" 
 />
    <glyph glyph-name="SF080000" unicode="&#x251c;" 
 />
    <glyph glyph-name="SF090000" unicode="&#x2524;" 
 />
    <glyph glyph-name="SF060000" unicode="&#x252c;" 
 />
    <glyph glyph-name="SF070000" unicode="&#x2534;" 
 />
    <glyph glyph-name="SF050000" unicode="&#x253c;" 
 />
    <glyph glyph-name="SF430000" unicode="&#x2550;" 
 />
    <glyph glyph-name="SF240000" unicode="&#x2551;" 
 />
    <glyph glyph-name="SF510000" unicode="&#x2552;" 
 />
    <glyph glyph-name="SF520000" unicode="&#x2553;" 
 />
    <glyph glyph-name="SF390000" unicode="&#x2554;" 
 />
    <glyph glyph-name="SF220000" unicode="&#x2555;" 
 />
    <glyph glyph-name="SF210000" unicode="&#x2556;" 
 />
    <glyph glyph-name="SF250000" unicode="&#x2557;" 
 />
    <glyph glyph-name="SF500000" unicode="&#x2558;" 
 />
    <glyph glyph-name="SF490000" unicode="&#x2559;" 
 />
    <glyph glyph-name="SF380000" unicode="&#x255a;" 
 />
    <glyph glyph-name="SF280000" unicode="&#x255b;" 
 />
    <glyph glyph-name="SF270000" unicode="&#x255c;" 
 />
    <glyph glyph-name="SF260000" unicode="&#x255d;" 
 />
    <glyph glyph-name="SF360000" unicode="&#x255e;" 
 />
    <glyph glyph-name="SF370000" unicode="&#x255f;" 
 />
    <glyph glyph-name="SF420000" unicode="&#x2560;" 
 />
    <glyph glyph-name="SF190000" unicode="&#x2561;" 
 />
    <glyph glyph-name="SF200000" unicode="&#x2562;" 
 />
    <glyph glyph-name="SF230000" unicode="&#x2563;" 
 />
    <glyph glyph-name="SF470000" unicode="&#x2564;" 
 />
    <glyph glyph-name="SF480000" unicode="&#x2565;" 
 />
    <glyph glyph-name="SF410000" unicode="&#x2566;" 
 />
    <glyph glyph-name="SF450000" unicode="&#x2567;" 
 />
    <glyph glyph-name="SF460000" unicode="&#x2568;" 
 />
    <glyph glyph-name="SF400000" unicode="&#x2569;" 
 />
    <glyph glyph-name="SF540000" unicode="&#x256a;" 
 />
    <glyph glyph-name="SF530000" unicode="&#x256b;" 
 />
    <glyph glyph-name="SF440000" unicode="&#x256c;" 
 />
    <glyph glyph-name="upblock" unicode="&#x2580;" 
 />
    <glyph glyph-name="dnblock" unicode="&#x2584;" 
 />
    <glyph glyph-name="block" unicode="&#x2588;" 
 />
    <glyph glyph-name="lfblock" unicode="&#x258c;" 
 />
    <glyph glyph-name="rtblock" unicode="&#x2590;" 
 />
    <glyph glyph-name="ltshade" unicode="&#x2591;" 
 />
    <glyph glyph-name="shade" unicode="&#x2592;" 
 />
    <glyph glyph-name="dkshade" unicode="&#x2593;" 
 />
    <glyph glyph-name="glyph261" unicode="&#x25a0;" horiz-adv-x="1000" 
d="M65 699h870v-869h-870v869v0zM120 644v-759h761v759h-761v0z" />
    <glyph glyph-name="filledrect" unicode="&#x25ac;" 
 />
    <glyph glyph-name="triagup" unicode="&#x25b2;" 
 />
    <glyph glyph-name="triagrt" unicode="&#x25ba;" 
 />
    <glyph glyph-name="triagdn" unicode="&#x25bc;" 
 />
    <glyph glyph-name="triaglf" unicode="&#x25c4;" 
 />
    <glyph glyph-name="Edieresis" unicode="&#x25ca;" 
 />
    <glyph glyph-name="circle" unicode="&#x25cb;" 
 />
    <glyph glyph-name="invbullet" unicode="&#x25d8;" 
 />
    <glyph glyph-name="invcircle" unicode="&#x25d9;" 
 />
    <glyph glyph-name="smileface" unicode="&#x263a;" 
 />
    <glyph glyph-name="invsmileface" unicode="&#x263b;" 
 />
    <glyph glyph-name="sun" unicode="&#x263c;" 
 />
    <glyph glyph-name="female" unicode="&#x2640;" 
 />
    <glyph glyph-name="male" unicode="&#x2642;" 
 />
    <glyph glyph-name="spade" unicode="&#x2660;" 
 />
    <glyph glyph-name="club" unicode="&#x2663;" 
 />
    <glyph glyph-name="heart" unicode="&#x2665;" 
 />
    <glyph glyph-name="diamond" unicode="&#x2666;" 
 />
    <glyph glyph-name="musicalnote" unicode="&#x266a;" 
 />
    <glyph glyph-name="musicalnotedbl" unicode="&#x266b;" 
 />
    <glyph glyph-name="Scaron" unicode="&#xf000;" 
 />
    <glyph glyph-name="Ocircumflex" unicode="&#xf001;" horiz-adv-x="0" 
 />
    <glyph glyph-name="Ograve" unicode="&#xf002;" horiz-adv-x="0" 
 />
    <glyph glyph-name="degree" horiz-adv-x="329" 
d="M165 710q56 0 96.5 -41t40.5 -97t-41 -97t-97 -41q-48 0 -86.5 31t-47.5 79q-1 7 -2 13.5t-1 12.5q0 56 40 98t98 42v0zM165 670q-48 0 -72 -30.5t-25 -67.5v-1.5v-1.5q1 -36 25 -66t72 -30t72 30.5t24 67.5q1 38 -23 68.5t-73 30.5v0z" />
    <glyph glyph-name="bullet" horiz-adv-x="6436" 
 />
    <glyph glyph-name="daggerdbl" horiz-adv-x="0" 
 />
  </font>
</defs>
</svg>
